<?xml version="1.0" encoding="utf-8"?>
<!-- Generator: Adobe Illustrator 27.5.0, SVG Export Plug-In . SVG Version: 6.00 Build 0)  -->
<svg version="1.1" xmlns="http://www.w3.org/2000/svg" xmlns:xlink="http://www.w3.org/1999/xlink" x="0px" y="0px"
	 viewBox="0 0 500 500" style="enable-background:new 0 0 500 500;" xml:space="preserve">
<g id="Background_Complete">
	<g>
		<g>
			<g>
				<rect x="377.813" y="58.69" style="fill:#E0E0E0;" width="82.648" height="136.805"/>
			</g>
		</g>
		<g>
			<g>
				<rect x="375.064" y="58.69" style="fill:#EBEBEB;" width="82.648" height="136.805"/>
			</g>
		</g>
		<g>
			<g>
				<rect x="378.583" y="61.464" style="fill:#FFFFFF;" width="75.609" height="131.257"/>
			</g>
		</g>
		<g>
			<g>
				<g>
					<rect x="392.978" y="78.52" style="fill:#EBEBEB;" width="46.493" height="97.145"/>
				</g>
			</g>
			<g>
				<g>
					<path style="fill:#E0E0E0;" d="M392.978,141.289c-0.108-9.075,8.052-17.934,17.038-19.201
						c4.285-0.604,8.838,0.246,12.842-1.396c7.147-2.93,9.421-12.426,16.613-15.242l0.328,70.215h-46.822V141.289z"/>
				</g>
			</g>
		</g>
	</g>
	<g>
		<g>
			<g>
				<rect x="39.76" y="63.386" style="fill:#E0E0E0;" width="82.648" height="136.805"/>
			</g>
		</g>
		<g>
			<g>
				<rect x="37.011" y="63.386" style="fill:#EBEBEB;" width="82.648" height="136.805"/>
			</g>
		</g>
		<g>
			<g>
				<rect x="40.53" y="66.16" style="fill:#FFFFFF;" width="75.609" height="131.257"/>
			</g>
		</g>
		<g>
			<g>
				<g>
					<rect x="54.925" y="83.216" style="fill:#EBEBEB;" width="46.493" height="97.145"/>
				</g>
			</g>
			<g>
				<g>
					<path style="fill:#E0E0E0;" d="M54.925,145.985c-0.108-9.075,8.052-17.934,17.038-19.201c4.285-0.604,8.838,0.246,12.842-1.396
						c7.147-2.93,9.421-12.426,16.613-15.242l0.328,70.215H54.925V145.985z"/>
				</g>
			</g>
		</g>
	</g>
	<g>
		<g>
			<g>
				
					<rect x="163.025" y="19.6" transform="matrix(6.123234e-17 -1 1 6.123234e-17 128.6285 369.0255)" style="fill:#EBEBEB;" width="171.604" height="201.198"/>
			</g>
		</g>
		<g>
			<g>
				
					<rect x="166.265" y="22.767" transform="matrix(6.123234e-17 -1 1 6.123234e-17 128.6287 369.0254)" style="fill:#FFFFFF;" width="165.125" height="194.862"/>
			</g>
		</g>
		<g>
			<g>
				
					<rect x="172.85" y="29.876" transform="matrix(6.123234e-17 -1 1 6.123234e-17 129.2325 369.074)" style="fill:#EBEBEB;" width="152.606" height="180.09"/>
			</g>
		</g>
		<g>
			<g>
				<path style="fill:#FFFFFF;" d="M193,91.156c-5.105,0.361-10.211,0.723-15.316,1.085c-0.884,0.063-1.844,0.157-2.488,0.767
					c-0.908,0.859-0.781,2.313-0.586,3.548c2.463,15.567,4.925,31.134,7.388,46.701l22.125,3.654
					c-1.824-17.345-3.859-33.502-6.681-52.502c-0.132-0.889-0.296-1.84-0.925-2.481C195.646,91.042,194.237,91.068,193,91.156z"/>
			</g>
		</g>
		<g>
			<g>
				<path style="fill:#F5F5F5;" d="M339.276,56.467c-10.2,3.318-17.127,19.622-18.312,30.282
					c-1.186,10.66,1.145,21.363,1.763,32.071c0.618,10.708-0.855,22.361-8.174,30.201c-8.821,9.449-23.752,10.919-32.892,20.06
					c-6.963,6.964-9.403,18.084-5.995,27.324h63.976L339.276,56.467z"/>
			</g>
		</g>
		<g>
			<g>
				<path style="fill:#E0E0E0;" d="M164.106,182.451c0,0,37.609-15.385,41.883-18.519c4.274-3.134,12.251-9.402,25.358-32.765
					l102.855,7.123l-8.543,41.299l-159.843,10.84L164.106,182.451z"/>
			</g>
		</g>
		<g>
			<g>
				<path style="fill:#FFFFFF;" d="M232.462,55.901c-4.04,0.953-8.097,2.112-11.834,3.88c-2.566,1.213-4.93,2.814-7.028,4.726l0,0
					c-4.719,4.301-7.946,10.016-9.079,16.299c-0.151,0.837-0.265,1.68-0.333,2.532c-0.391,4.866,0.923,10.12,4.566,13.37
					c2.848,2.541,6.708,3.557,10.42,4.446c16.268,3.896,32.821,6.916,49.541,7.441c7.398,0.232,14.903-0.039,22.014-2.095
					c7.111-2.056,13.853-6.043,18.125-12.088c4.272-6.045,5.732-14.294,2.711-21.051c-2.941-6.579-9.461-10.819-16.052-13.733
					C275.914,50.964,253.318,50.979,232.462,55.901z"/>
			</g>
		</g>
		<g>
			<g>
				<path style="fill:#E0E0E0;" d="M159.108,43.618v44.869l82.46-44.869C215.728,43.633,159.108,43.618,159.108,43.618z"/>
			</g>
		</g>
		<g>
			<g>
				<g>
					<path style="fill:#E0E0E0;" d="M148.228,34.396c0.075-0.074,0.846,0.592,1.72,1.486c0.875,0.895,1.523,1.68,1.448,1.753
						c-0.075,0.074-0.846-0.592-1.72-1.486C148.801,35.255,148.153,34.47,148.228,34.396z"/>
				</g>
			</g>
		</g>
		<g>
			<g>
				<g>
					<path style="fill:#E0E0E0;" d="M346.228,37.45c-0.073-0.076,0.571-0.805,1.437-1.628c0.866-0.823,1.627-1.428,1.699-1.351
						c0.072,0.076-0.57,0.805-1.437,1.628C347.061,36.921,346.3,37.526,346.228,37.45z"/>
				</g>
			</g>
		</g>
		<g>
			<g>
				<g>
					<path style="fill:#E0E0E0;" d="M346.214,202.867c0.075-0.074,0.848,0.581,1.726,1.463c0.879,0.883,1.53,1.658,1.456,1.733
						c-0.074,0.074-0.847-0.581-1.726-1.463C346.791,203.717,346.139,202.941,346.214,202.867z"/>
				</g>
			</g>
		</g>
		<g>
			<g>
				<g>
					<path style="fill:#E0E0E0;" d="M151.247,202.874c0.074,0.075-0.581,0.847-1.463,1.726c-0.883,0.879-1.658,1.53-1.732,1.456
						c-0.074-0.074,0.581-0.847,1.463-1.726C150.397,203.451,151.173,202.799,151.247,202.874z"/>
				</g>
			</g>
		</g>
		<g>
			<g>
				<g>
					<path style="fill:#EBEBEB;" d="M148.239,205.974c-0.066-0.087,0.68-0.757,1.546-1.631c0.869-0.871,1.536-1.62,1.623-1.555
						c0.082,0.06-0.462,0.932-1.352,1.824C149.168,205.507,148.299,206.056,148.239,205.974z"/>
				</g>
			</g>
		</g>
	</g>
	<g>
		<g>
			<g>
				<path style="fill:#E0E0E0;" d="M390.815,369.85c-4.246-2.666-9.111-4.341-14.098-4.852c-2.303-0.237-4.821-0.169-6.669,1.226
					c-0.392,0.296-0.774,0.734-0.687,1.218c0.064,0.355,0.365,0.614,0.652,0.833C375.75,372.651,384.427,373.203,390.815,369.85"/>
			</g>
			<g>
				<path style="fill:#E0E0E0;" d="M390.453,369.451c-3.192-2.491-6.402-4.999-9.106-8.012c-2.704-3.013-4.901-6.591-5.709-10.558
					c-0.245-1.203-0.321-2.578,0.451-3.533C383.348,353.018,389.05,360.349,390.453,369.451"/>
			</g>
			<g>
				<path style="fill:#E0E0E0;" d="M390.74,369.796c-0.547-3.971-0.743-8.052,0.169-11.955c0.912-3.903,3.035-7.639,6.368-9.865
					c1.254,2.932,0.715,6.309-0.168,9.373c-1.365,4.735-3.507,9.244-6.314,13.294"/>
			</g>
			<g>
				<path style="fill:#E0E0E0;" d="M397.855,382.545c-4.319,0.525-8.081,2.802-11.306,5.722c-3.225,2.921-5.518,6.856-6.467,11.102
					c4.237-0.262,7.831-3.25,10.438-6.599c2.607-3.35,4.413-7.026,7.277-10.159"/>
			</g>
			<g>
				<path style="fill:#E0E0E0;" d="M399.401,384.584c-3.479-8.57-2.218-18.896,3.22-26.377
					C405.081,366.961,404.178,376.848,399.401,384.584"/>
			</g>
			<g>
				<path style="fill:#E0E0E0;" d="M408.802,395.779c-3.92-0.243-7.905,0.69-11.309,2.65c-3.404,1.959-6.213,4.937-7.971,8.449
					c-0.239,0.477-0.45,1.084-0.13,1.512c0.278,0.372,0.815,0.406,1.279,0.376c3.8-0.246,7.167-2.532,9.946-5.136
					c2.779-2.603,5.2-5.61,8.27-7.862"/>
			</g>
			<g>
				<path style="fill:#E0E0E0;" d="M408.502,395.169c-2.022-6.47-2.148-13.52-0.358-20.059c0.707-2.582,1.893-5.3,4.281-6.511
					c0.204-0.103,0.441-0.195,0.655-0.115c0.203,0.076,0.32,0.284,0.414,0.479c0.849,1.775,1.097,3.789,1.009,5.755
					c-0.087,1.965-0.495,3.901-0.902,5.826c-0.752,3.561-1.152,7.387-3.105,10.458c-0.464,0.729-0.872,1.516-1.241,2.297
					c-0.37,0.781-0.372,1.055-0.711,1.676"/>
			</g>
			<g>
				<path style="fill:#E0E0E0;" d="M433.388,398.877c-1.844-7.013,0.113-15.516,4.533-21.265c0.326-0.423,0.757-0.877,1.289-0.828
					c0.814,0.075,1.025,1.16,0.988,1.977C439.878,385.927,437.487,392.99,433.388,398.877"/>
			</g>
			<g>
				<path style="fill:#E0E0E0;" d="M435.632,400.411c8.521,2.217,18.296,0.062,25.382-5.163c-4.2-2.129-9.151-2.736-13.741-1.686
					C442.683,394.612,438.489,396.668,435.632,400.411"/>
			</g>
			<g>
				<path style="fill:#E0E0E0;" d="M437.524,395.741c4.772-7.78,13.921-12.858,23.036-13.32c-1.05,3.708-4.097,6.589-7.535,8.33
					c-3.438,1.741-7.275,2.499-11.058,3.234C440.496,394.271,438.478,394.585,437.524,395.741"/>
			</g>
			<g>
				<path style="fill:#E0E0E0;" d="M433.862,373.082c1.292-4.427,2.591-8.893,2.946-13.491c0.355-4.598-0.301-9.399-2.687-13.345
					c-4.457,8.626-4.909,18.703-0.393,27.299"/>
			</g>
			<g>
				<path style="fill:#E0E0E0;" d="M448.869,365.497c5.213-9.474,15.848-17.042,26.609-18.103
					C471.327,357.73,460.006,365.719,448.869,365.497"/>
			</g>
			<g>
				<path style="fill:#E0E0E0;" d="M445.59,367.353c7.774,1.184,14.398,6.15,21.663,9.159c1.554,0.644,3.23,1.157,4.897,0.938
					c1.668-0.219,3.313-1.337,3.687-2.977c0.31-1.361-0.309-2.807-1.286-3.805c-0.977-0.998-2.268-1.621-3.557-2.158
					c-7.913-3.294-16.399-3.377-24.734-1.379"/>
			</g>
			<g>
				<path style="fill:#E0E0E0;" d="M441.091,372.806c1.76,0.504,2.361,1.415,3.755,2.602c4.728,4.027,10.4,6.94,16.427,8.439
					c0.628,0.156,1.451,0.218,1.762-0.349c0.272-0.495-0.072-1.095-0.425-1.536c-2.526-3.16-6.128-5.321-9.919-6.733
					c-3.791-1.412-7.075-3.113-11.6-2.748"/>
			</g>
			<g>
				<path style="fill:#E0E0E0;" d="M436.015,339.874c6.322,5.901,15.226,8.93,23.835,8.109c0.392-0.037,0.819-0.1,1.085-0.389
					c0.6-0.653-0.12-1.66-0.819-2.205C453.108,339.925,444.62,337.66,436.015,339.874"/>
			</g>
			<g>
				<path style="fill:#E0E0E0;" d="M442.034,337.671c8.356-6.265,19.815-8.156,29.741-4.907c-3.745,3.691-8.942,5.677-14.172,6.222
					C452.372,339.53,447.134,338.95,442.034,337.671"/>
			</g>
			<g>
				<path style="fill:#E0E0E0;" d="M439.641,322.538c-0.688-6.994-0.242-12.516-0.727-19.543c-0.039-0.561-0.159-1.237-0.685-1.439
					c-0.731-0.282-1.341,0.617-1.581,1.363c-2.083,6.478-0.944,13.907,2.982,19.465"/>
			</g>
			<g>
				<path style="fill:#E0E0E0;" d="M439.138,323.311c4.741-2.932,8.297-6.761,11.586-11.261c2.288-3.131,4.218-6.882,3.698-10.725
					c-3.214-0.064-6.267,1.708-8.357,4.15c-2.09,2.442-3.333,5.494-4.26,8.572C440.876,317.124,440.227,320.286,439.138,323.311"/>
			</g>
			<g>
				<path style="fill:#E0E0E0;" d="M450.521,320.148c10.404-3.847,20.111-9.571,28.513-16.813c-3.406-1.372-7.305-0.551-10.71,0.824
					c-7.78,3.14-14.136,8.441-17.951,15.913"/>
			</g>
			<g>
				<path style="fill:#E0E0E0;" d="M442.339,327.137c5.263,0.575,10.61,0.95,15.833,0.077c5.133-0.858,9.984-2.892,14.781-4.911
					c0.397-0.167,0.83-0.368,1.004-0.762c0.189-0.428-0.013-0.95-0.36-1.265c-0.347-0.314-0.809-0.465-1.26-0.591
					c-5.215-1.458-10.842-0.776-15.973,0.954C451.232,322.37,447.025,324.425,442.339,327.137"/>
			</g>
			<g>
				<path style="fill:#E0E0E0;" d="M412.284,340.113c-3.591-7.249-3.358-15.708-0.256-23.179c2.184,3.327,2.451,7.565,2.051,11.525
					c-0.399,3.96-1.605,8.035-1.683,12.014"/>
			</g>
			<g>
				<path style="fill:#E0E0E0;" d="M397.938,332.877c-8.966-0.171-17.935,3.649-24.023,10.234c4.475,0.703,9.084-0.451,13.154-2.439
					c4.07-1.988,7.688-4.776,11.273-7.545"/>
			</g>
			<g>
				<path style="fill:#E0E0E0;" d="M388.293,329.652c-4.386-0.356-8.607-0.899-12.824,0.394c-4.217,1.292-8.056,4.226-9.775,8.288
					c4.102,0.462,8.262-0.566,12.023-2.27C381.477,334.359,384.896,331.999,388.293,329.652"/>
			</g>
			<g>
				<path style="fill:#E0E0E0;" d="M402.573,329.799c-3.946-2.586-7.998-5.218-12.592-6.289c-4.594-1.071-9.919-0.28-13.122,3.183
					c3.719,2.182,8.232,2.44,12.544,2.437c4.312-0.003,9.599-0.052,13.664,1.386"/>
			</g>
			<g>
				<path style="fill:#E0E0E0;" d="M402.597,330.008c-6.746-6.624-9.303-18.524-6.589-27.58
					C401.31,310.484,403.685,320.424,402.597,330.008"/>
			</g>
			<g>
				<path style="fill:#E0E0E0;" d="M421.146,311.239c1.272-2.958,2.167-6.062,3.308-9.072c1.141-3.01,2.56-5.973,4.717-8.364
					c2.157-2.39,5.139-4.171,8.355-4.33c-2.013,9.115-8.067,17.259-16.215,21.813"/>
			</g>
			<g>
				<path style="fill:#E0E0E0;" d="M417.789,315.15c-2.105-2.898-4.538-6.832-7.393-8.995c-2.855-2.163-6.573-3.472-10.057-2.641
					C403.883,309.849,410.579,314.314,417.789,315.15"/>
			</g>
			<g>
				<path style="fill:#E0E0E0;" d="M418.461,311.48c-1.38-3.507-2.77-7.05-3.328-10.777c-0.558-3.727-0.219-7.707,1.687-10.958
					c3.703,7,4.896,14.514,1.83,21.815"/>
			</g>
			<g>
				<path style="fill:#E0E0E0;" d="M421.18,289.745c2.097-6.939,8.451-12.048,15.311-14.393c0.865-0.296,1.781-0.542,2.685-0.403
					c0.903,0.14,1.789,0.757,1.979,1.652c0.25,1.18-0.725,2.238-1.642,3.022C434.17,284.191,427.891,287.658,421.18,289.745"/>
			</g>
			<g>
				<path style="fill:#E0E0E0;" d="M421.256,284.07c0.267-4.474,0.546-9.013,2.001-13.252c1.455-4.239,4.26-8.216,8.34-10.071
					c0.694,4.519-1.3,9.014-3.704,12.903c-2.404,3.888-5.302,7.559-6.747,11.896"/>
			</g>
			<g>
				<path style="fill:#E0E0E0;" d="M421.146,287.15c-1.734-5.057-1.913-11.48-4.941-15.886c-2.117-3.08-5.507-5.178-7.33-8.439
					c-1.212,3.046-0.841,6.557,0.426,9.58c1.267,3.024,3.361,5.627,5.602,8.02C417.144,282.818,419.063,284.618,421.146,287.15"/>
			</g>
			<g>
				<g>
					<path style="fill:#E0E0E0;" d="M421.18,436.076c-0.135,0-0.251-33.735-0.261-75.341c-0.009-41.62,0.092-75.348,0.227-75.348
						c0.135,0,0.251,33.728,0.261,75.348C421.416,402.34,421.314,436.076,421.18,436.076z"/>
				</g>
			</g>
			<g>
				<g>
					<path style="fill:#E0E0E0;" d="M450.661,335.022c0.009,0.032-0.443,0.2-1.268,0.476c-0.911,0.307-2.084,0.703-3.491,1.178
						c-2.943,1.003-6.986,2.455-11.375,4.253c-4.345,1.864-8.443,3.377-10.776,5.399c-1.166,0.998-1.835,2.078-2.165,2.865
						c-0.335,0.792-0.395,1.277-0.439,1.268c-0.017-0.003-0.011-0.123,0.015-0.354c0.039-0.227,0.097-0.567,0.248-0.983
						c0.285-0.832,0.935-1.987,2.113-3.054c1.173-1.069,2.805-2.03,4.676-2.905c1.87-0.873,3.943-1.784,6.145-2.688
						c4.402-1.804,8.476-3.209,11.453-4.13c1.487-0.464,2.701-0.806,3.543-1.032C450.181,335.096,450.651,334.99,450.661,335.022z"
						/>
				</g>
			</g>
			<g>
				<g>
					<path style="fill:#E0E0E0;" d="M460.324,311.286c0.011,0.013-0.112,0.143-0.355,0.38c-0.287,0.27-0.645,0.606-1.082,1.017
						c-1.005,0.914-2.374,2.156-4.041,3.671c-3.489,3.107-8.222,7.321-13.451,11.977c-5.251,4.674-9.788,9.139-12.933,12.502
						c-1.575,1.679-2.815,3.07-3.661,4.041c-0.395,0.451-0.718,0.82-0.977,1.116c-0.227,0.253-0.352,0.381-0.365,0.37
						c-0.013-0.01,0.087-0.159,0.289-0.432c0.204-0.271,0.501-0.675,0.908-1.176c0.803-1.011,2.006-2.44,3.553-4.153
						c3.088-3.431,7.601-7.949,12.862-12.632c5.269-4.663,10.063-8.851,13.547-11.871c1.71-1.467,3.113-2.671,4.144-3.555
						c0.462-0.383,0.84-0.697,1.143-0.948C460.168,311.379,460.313,311.274,460.324,311.286z"/>
				</g>
			</g>
			<g>
				<g>
					<path style="fill:#E0E0E0;" d="M435.726,333.083c-0.138-0.061,0.959-2.594,2.052-5.797c1.103-3.203,1.622-5.905,1.762-5.883
						c0.127,0.013-0.183,2.795-1.3,6.039c-0.55,1.619-1.156,3.043-1.633,4.054C436.128,332.508,435.785,333.109,435.726,333.083z"/>
				</g>
			</g>
			<g>
				<g>
					<path style="fill:#E0E0E0;" d="M421.211,353.502c-0.027,0.02-0.314-0.316-0.809-0.939c-0.549-0.704-1.244-1.595-2.073-2.658
						c-1.741-2.251-4.148-5.357-6.846-8.757c-2.7-3.4-5.179-6.45-6.976-8.656c-0.847-1.048-1.557-1.927-2.118-2.622
						c-0.495-0.624-0.756-0.979-0.731-1.001c0.026-0.022,0.336,0.292,0.875,0.878c0.54,0.585,1.305,1.447,2.238,2.523
						c1.866,2.151,4.39,5.17,7.094,8.575c2.701,3.404,5.068,6.548,6.74,8.853c0.836,1.152,1.502,2.093,1.95,2.752
						C421.003,353.108,421.238,353.482,421.211,353.502z"/>
				</g>
			</g>
			<g>
				<g>
					<path style="fill:#E0E0E0;" d="M414.747,345.203c-0.08,0.085-1.804-1.961-2.708-5.07c-0.667-2.191-0.696-4.195-0.614-5.111
						l0.215,0.017c-0.096,0.391-0.167,0.597-0.205,0.59c-0.038-0.006-0.04-0.224-0.008-0.625l0.215,0.017
						c0.079,0.909,0.217,2.844,0.865,4.972C413.379,343.007,414.878,345.121,414.747,345.203z"/>
				</g>
			</g>
			<g>
				<g>
					<path style="fill:#E0E0E0;" d="M406.402,334.706c-0.063,0.068-0.618-0.632-1.891-1.098c-1.263-0.489-3.164-0.596-5.249-0.417
						c-2.087,0.153-3.952,0.525-5.286,0.853c-1.335,0.331-2.15,0.59-2.175,0.522c-0.022-0.057,0.754-0.433,2.083-0.854
						c1.326-0.417,3.216-0.851,5.342-1.007c2.109-0.182,4.11-0.02,5.415,0.584C405.963,333.874,406.445,334.694,406.402,334.706z"/>
				</g>
			</g>
			<g>
				<g>
					<path style="fill:#E0E0E0;" d="M404.423,332.162c-0.037,0.076-1.101-0.441-2.897-1.055c-1.792-0.617-4.345-1.263-7.227-1.488
						c-2.884-0.215-5.506,0.037-7.37,0.375c-1.868,0.334-2.998,0.684-3.023,0.604c-0.01-0.032,0.263-0.147,0.768-0.327
						c0.503-0.188,1.251-0.402,2.188-0.614c1.871-0.429,4.539-0.742,7.475-0.523c2.934,0.228,5.524,0.942,7.308,1.65
						c0.894,0.352,1.6,0.677,2.069,0.939C404.186,331.977,404.439,332.132,404.423,332.162z"/>
				</g>
			</g>
			<g>
				<g>
					<path style="fill:#E0E0E0;" d="M421.146,321.403c-0.13,0.033-1.076-3.253-2.112-7.338c-1.036-4.087-1.771-7.425-1.64-7.458
						c0.13-0.033,1.076,3.252,2.112,7.339C420.542,318.031,421.276,321.37,421.146,321.403z"/>
				</g>
			</g>
			<g>
				<g>
					<path style="fill:#E0E0E0;" d="M421.28,321.403c-0.145,0.047-0.753-2.148-2.341-4.393c-1.546-2.292-3.518-3.443-3.446-3.556
						c0.026-0.051,0.57,0.149,1.33,0.686c0.762,0.53,1.703,1.429,2.515,2.59C420.986,319.066,421.398,321.395,421.28,321.403z"/>
				</g>
			</g>
			<g>
				<g>
					<path style="fill:#E0E0E0;" d="M421.18,418.092c-0.053,0.008-0.152-0.811-0.532-2.244c-0.376-1.432-1.083-3.464-2.254-5.841
						c-2.331-4.763-6.572-10.802-11.961-16.851c-2.67-3.051-5.261-5.929-7.46-8.685c-2.203-2.752-4.013-5.374-5.335-7.694
						c-1.326-2.318-2.189-4.307-2.693-5.71c-0.248-0.704-0.429-1.253-0.529-1.633c-0.107-0.378-0.155-0.578-0.139-0.583
						c0.044-0.014,0.289,0.772,0.845,2.147c0.555,1.374,1.46,3.326,2.813,5.604c1.35,2.28,3.176,4.863,5.387,7.586
						c2.208,2.727,4.802,5.59,7.477,8.646c5.403,6.065,9.635,12.18,11.904,17.022c1.141,2.416,1.806,4.487,2.128,5.945
						c0.156,0.731,0.261,1.3,0.299,1.692C421.179,417.885,421.197,418.09,421.18,418.092z"/>
				</g>
			</g>
			<g>
				<g>
					<path style="fill:#E0E0E0;" d="M447.82,388.002c0.016,0.036-0.494,0.294-1.396,0.784c-0.895,0.503-2.166,1.278-3.622,2.394
						c-1.456,1.115-3.084,2.578-4.756,4.338c-1.669,1.764-3.389,3.811-5.144,6.006c-3.509,4.402-6.79,8.298-8.755,11.408
						c-0.998,1.542-1.723,2.843-2.198,3.755c-0.479,0.91-0.733,1.422-0.769,1.406c-0.015-0.007,0.03-0.143,0.129-0.396
						c0.104-0.251,0.245-0.628,0.469-1.094c0.425-0.942,1.109-2.277,2.077-3.855c1.908-3.185,5.164-7.134,8.667-11.529
						c1.758-2.198,3.499-4.25,5.2-6.011c1.704-1.758,3.375-3.212,4.874-4.303c1.499-1.093,2.811-1.831,3.74-2.286
						c0.463-0.232,0.84-0.375,1.09-0.483C447.677,388.033,447.813,387.987,447.82,388.002z"/>
				</g>
			</g>
			<g>
				<g>
					<path style="fill:#E0E0E0;" d="M448.341,397.764c0.006,0.071-1.127,0.208-2.951,0.429c-1.818,0.235-4.348,0.539-6.999,1.379
						c-2.641,0.86-4.836,2.17-6.267,3.288c-1.445,1.116-2.126,2.04-2.193,1.986c-0.023-0.017,0.118-0.268,0.437-0.679
						c0.316-0.414,0.832-0.966,1.537-1.574c1.407-1.213,3.624-2.602,6.335-3.486c2.715-0.859,5.28-1.109,7.114-1.258
						C447.196,397.716,448.336,397.701,448.341,397.764z"/>
				</g>
			</g>
			<g>
				<g>
					<path style="fill:#E0E0E0;" d="M430.793,403.773c-0.154-0.087,1.176-2.119,2.208-4.851c0.968-2.757,1.195-5.175,1.368-5.147
						c0.063,0.008,0.06,0.612-0.049,1.583c-0.116,0.968-0.348,2.313-0.861,3.73c-0.516,1.415-1.192,2.598-1.711,3.421
						C431.222,403.332,430.848,403.807,430.793,403.773z"/>
				</g>
			</g>
			<g>
				<g>
					<path style="fill:#E0E0E0;" d="M456.447,361.796c0.006,0.016-0.157,0.102-0.472,0.251c-0.366,0.166-0.825,0.375-1.387,0.63
						c-0.607,0.26-1.345,0.591-2.175,1.029c-0.834,0.43-1.807,0.873-2.82,1.482c-0.514,0.292-1.052,0.598-1.61,0.915
						c-0.558,0.321-1.11,0.702-1.698,1.07c-1.187,0.72-2.376,1.607-3.645,2.512c-2.483,1.884-5.094,4.115-7.608,6.691
						c-2.49,2.601-4.63,5.288-6.429,7.834c-0.861,1.299-1.707,2.518-2.386,3.729c-0.348,0.6-0.71,1.165-1.011,1.734
						c-0.298,0.569-0.585,1.116-0.86,1.64c-0.573,1.033-0.983,2.021-1.384,2.869c-0.409,0.845-0.714,1.593-0.954,2.209
						c-0.236,0.57-0.429,1.036-0.582,1.407c-0.138,0.32-0.219,0.486-0.235,0.48c-0.016-0.005,0.033-0.182,0.142-0.513
						c0.132-0.381,0.296-0.858,0.498-1.443c0.213-0.629,0.493-1.39,0.881-2.25c0.379-0.862,0.769-1.865,1.326-2.914
						c0.267-0.532,0.547-1.087,0.837-1.665c0.295-0.577,0.651-1.151,0.993-1.759c0.668-1.228,1.507-2.463,2.365-3.779
						c1.791-2.579,3.939-5.296,6.448-7.918c2.534-2.596,5.175-4.835,7.691-6.714c1.286-0.902,2.492-1.782,3.696-2.492
						c0.596-0.363,1.157-0.738,1.724-1.053c0.567-0.31,1.113-0.608,1.635-0.893c1.029-0.592,2.018-1.016,2.867-1.425
						c0.846-0.416,1.598-0.723,2.219-0.957c0.578-0.222,1.049-0.403,1.425-0.547C456.267,361.836,456.441,361.78,456.447,361.796z"
						/>
				</g>
			</g>
			<g>
				<g>
					<path style="fill:#E0E0E0;" d="M435.364,375.922c-0.043-0.007,0.192-0.826,1.159-1.727c0.944-0.899,2.666-1.732,4.671-1.792
						c1.999-0.053,3.732,0.506,4.915,0.96c1.19,0.467,1.882,0.846,1.859,0.903c-0.028,0.068-0.769-0.199-1.972-0.577
						c-1.199-0.367-2.893-0.85-4.787-0.799c-1.887,0.058-3.517,0.785-4.462,1.566C435.782,375.235,435.442,375.97,435.364,375.922z"
						/>
				</g>
			</g>
			<g>
				<g>
					<path style="fill:#E0E0E0;" d="M432.212,379.173c-0.134-0.074,1.055-1.818,1.326-4.315c0.312-2.493-0.445-4.463-0.297-4.505
						c0.053-0.022,0.319,0.436,0.548,1.257c0.231,0.816,0.383,2.006,0.234,3.305c-0.154,1.298-0.576,2.42-0.988,3.162
						C432.623,378.822,432.259,379.207,432.212,379.173z"/>
				</g>
			</g>
		</g>
		<g>
			<path style="fill:#E0E0E0;" d="M397.88,422.926c0.727,12.892,4.612,26.004,10.588,39.26h25.986
				c5.699-13.125,9.315-26.216,9.958-39.26H397.88z"/>
		</g>
		<g>
			<g>
				<path style="fill:#FAFAFA;" d="M440.2,443.788c0,0.135-8.556,0.244-19.108,0.244c-10.555,0-19.109-0.109-19.109-0.244
					c0-0.135,8.554-0.244,19.109-0.244C431.645,443.544,440.2,443.653,440.2,443.788z"/>
			</g>
		</g>
		<g>
			<g>
				<path style="fill:#FAFAFA;" d="M439.62,448.458c0,0.135-8.021,0.244-17.913,0.244c-9.895,0-17.914-0.109-17.914-0.244
					c0-0.135,8.019-0.244,17.914-0.244C431.599,448.215,439.62,448.324,439.62,448.458z"/>
			</g>
		</g>
		<g>
			<g>
				<path style="fill:#FAFAFA;" d="M408.887,431.391c0.135,0,0.244,2.68,0.244,5.985c0,3.306-0.109,5.986-0.244,5.986
					c-0.135,0-0.244-2.679-0.244-5.986C408.643,434.071,408.752,431.391,408.887,431.391z"/>
			</g>
		</g>
		<g>
			<g>
				<path style="fill:#FAFAFA;" d="M422.81,431.391c0.135,0,0.244,2.775,0.244,6.198c0,3.424-0.109,6.199-0.244,6.199
					c-0.135,0-0.244-2.775-0.244-6.199C422.566,434.166,422.675,431.391,422.81,431.391z"/>
			</g>
		</g>
		<g>
			<g>
				<path style="fill:#FAFAFA;" d="M435.88,431.286c0.135,0,0.244,2.831,0.244,6.322c0,3.492-0.109,6.322-0.244,6.322
					s-0.244-2.83-0.244-6.322C435.637,434.116,435.746,431.286,435.88,431.286z"/>
			</g>
		</g>
		<g>
			<g>
				<path style="fill:#FAFAFA;" d="M443.587,431.391c0,0.135-10.035,0.244-22.411,0.244c-12.38,0-22.413-0.109-22.413-0.244
					c0-0.135,10.033-0.244,22.413-0.244C433.552,431.147,443.587,431.256,443.587,431.391z"/>
			</g>
		</g>
	</g>
	<g>
		<g>
			<g>
				<rect x="72.737" y="253.752" style="fill:#F5F5F5;" width="49.825" height="13.181"/>
			</g>
		</g>
		<g>
			<g>
				<g>
					<path style="fill:#E0E0E0;" d="M101.494,280.816c-0.005-0.005-0.01-0.086-0.015-0.24c-0.004-0.176-0.01-0.399-0.016-0.676
						c-0.009-0.62-0.021-1.485-0.037-2.594c-0.02-2.275-0.049-5.547-0.085-9.671l0.154,0.154
						c-11.377,0.023-29.469,0.059-49.822,0.099c0.112-0.113-0.256,0.253,0.251-0.253v0.003v0.007v0.013v0.026v0.053v0.106v0.212
						l0,0.424v0.845c0,0.562,0,1.123,0,1.682c0,1.117-0.001,2.226-0.001,3.326c-0.001,2.2-0.003,4.364-0.004,6.483l-0.248-0.248
						c14.188,0.045,26.602,0.085,35.507,0.113c4.435,0.03,7.994,0.054,10.48,0.071c1.209,0.014,2.156,0.025,2.834,0.033
						c0.305,0.007,0.549,0.012,0.741,0.016C101.4,280.806,101.488,280.811,101.494,280.816c0.005,0.005-0.073,0.011-0.231,0.016
						c-0.184,0.004-0.418,0.009-0.711,0.016c-0.665,0.008-1.594,0.019-2.78,0.033c-2.472,0.017-6.012,0.041-10.423,0.071
						c-8.948,0.028-21.423,0.068-35.68,0.113l-0.248,0.001l0-0.249c-0.001-2.12-0.003-4.283-0.004-6.483
						c0-1.1-0.001-2.209-0.001-3.326c0-0.559,0-1.119,0-1.682l0-0.845v-0.424v-0.212v-0.106v-0.053v-0.026v-0.013v-0.007v-0.003
						c0.508-0.508,0.143-0.141,0.257-0.254c20.353,0.04,38.446,0.077,49.822,0.099l0.156,0l-0.001,0.154
						c-0.037,4.164-0.065,7.466-0.085,9.763c-0.016,1.094-0.029,1.947-0.038,2.559c-0.007,0.266-0.012,0.48-0.016,0.649
						C101.504,280.751,101.499,280.822,101.494,280.816z"/>
				</g>
			</g>
		</g>
	</g>
	<g>
		<g>
			<g>
				<rect x="371.582" y="251.939" style="fill:#F5F5F5;" width="49.825" height="13.181"/>
			</g>
		</g>
		<g>
			<g>
				<g>
					<path style="fill:#E0E0E0;" d="M400.339,279.004c-0.005-0.005-0.01-0.086-0.015-0.24c-0.004-0.177-0.01-0.399-0.016-0.676
						c-0.009-0.62-0.021-1.485-0.037-2.594c-0.02-2.275-0.049-5.547-0.085-9.671l0.154,0.154
						c-11.377,0.023-29.469,0.059-49.822,0.099c0.112-0.113-0.256,0.253,0.251-0.253v0.003v0.007v0.013v0.027v0.053v0.106v0.212
						l0,0.423v0.845c0,0.562,0,1.123,0,1.681c0,1.117-0.001,2.226-0.001,3.326c-0.001,2.2-0.003,4.364-0.004,6.483l-0.248-0.248
						c14.188,0.045,26.602,0.085,35.507,0.113c4.435,0.03,7.994,0.054,10.48,0.071c1.209,0.014,2.156,0.025,2.834,0.033
						c0.305,0.007,0.549,0.012,0.741,0.016C400.245,278.993,400.333,278.998,400.339,279.004c0.005,0.005-0.073,0.011-0.231,0.016
						c-0.184,0.004-0.418,0.009-0.711,0.016c-0.665,0.008-1.594,0.019-2.78,0.033c-2.473,0.017-6.012,0.041-10.423,0.071
						c-8.948,0.028-21.423,0.068-35.68,0.113l-0.248,0.001l0-0.249c-0.001-2.12-0.003-4.283-0.004-6.483
						c0-1.1-0.001-2.209-0.001-3.326c0-0.559,0-1.119,0-1.681l0-0.845v-0.423v-0.212v-0.106v-0.053v-0.027v-0.013v-0.007v-0.003
						c0.508-0.508,0.143-0.141,0.257-0.254c20.353,0.04,38.446,0.077,49.822,0.099l0.156,0l-0.001,0.154
						c-0.036,4.164-0.065,7.466-0.085,9.763c-0.016,1.094-0.029,1.947-0.038,2.559c-0.007,0.266-0.012,0.48-0.016,0.649
						C400.349,278.938,400.344,279.009,400.339,279.004z"/>
				</g>
			</g>
		</g>
	</g>
	<g>
		<g>
			<g>
				<rect x="333.553" y="375.466" style="fill:#F5F5F5;" width="49.825" height="13.181"/>
			</g>
		</g>
		<g>
			<g>
				<g>
					<path style="fill:#E0E0E0;" d="M362.31,402.531c-0.005-0.005-0.01-0.086-0.015-0.24c-0.004-0.176-0.01-0.399-0.016-0.676
						c-0.009-0.62-0.021-1.485-0.037-2.594c-0.02-2.275-0.049-5.547-0.085-9.671l0.154,0.154
						c-11.377,0.023-29.469,0.059-49.822,0.099c0.112-0.113-0.256,0.253,0.251-0.253v0.003v0.007v0.013v0.026v0.053v0.106v0.212
						v0.424v0.845c0,0.562,0,1.123,0,1.682c0,1.117-0.001,2.226-0.001,3.326c-0.001,2.2-0.003,4.364-0.004,6.483l-0.248-0.248
						c14.188,0.045,26.602,0.085,35.507,0.113c4.435,0.03,7.994,0.054,10.48,0.071c1.209,0.014,2.156,0.025,2.834,0.033
						c0.305,0.007,0.549,0.012,0.741,0.016C362.216,402.52,362.304,402.526,362.31,402.531c0.005,0.005-0.073,0.011-0.231,0.016
						c-0.184,0.004-0.418,0.009-0.711,0.016c-0.665,0.008-1.594,0.019-2.78,0.033c-2.472,0.017-6.012,0.041-10.423,0.071
						c-8.948,0.028-21.423,0.068-35.68,0.113l-0.248,0.001l0-0.249c-0.001-2.12-0.003-4.283-0.004-6.483
						c0-1.1-0.001-2.209-0.001-3.326c0-0.559,0-1.119,0-1.682l0-0.845v-0.424v-0.212v-0.106V389.4v-0.026v-0.013v-0.007v-0.003
						c0.508-0.508,0.143-0.141,0.257-0.254c20.353,0.04,38.446,0.077,49.822,0.099l0.156,0l-0.001,0.154
						c-0.036,4.164-0.065,7.466-0.085,9.763c-0.016,1.094-0.029,1.947-0.038,2.559c-0.007,0.266-0.012,0.48-0.016,0.649
						C362.32,402.466,362.315,402.536,362.31,402.531z"/>
				</g>
			</g>
		</g>
	</g>
	<g>
		<g>
			<g>
				<rect x="206.771" y="301.979" style="fill:#F5F5F5;" width="49.825" height="13.181"/>
			</g>
		</g>
	</g>
	<g>
		<g>
			<g>
				<g>
					<path style="fill:#E0E0E0;" d="M290.684,252.703c-0.005-0.005-0.01-0.086-0.015-0.239c-0.004-0.177-0.009-0.399-0.016-0.676
						c-0.009-0.62-0.021-1.485-0.037-2.594c-0.02-2.275-0.049-5.547-0.085-9.671l0.154,0.154
						c-11.377,0.023-29.469,0.059-49.822,0.099c0.112-0.113-0.256,0.253,0.251-0.253v0.003v0.007v0.013v0.027v0.053v0.106l0,0.212
						v0.424v0.845c0,0.563,0,1.123,0,1.682c0,1.117-0.001,2.226-0.001,3.326c-0.001,2.2-0.003,4.364-0.004,6.483l-0.248-0.248
						c14.188,0.045,26.602,0.085,35.507,0.113c4.435,0.03,7.994,0.054,10.48,0.071c1.209,0.014,2.156,0.025,2.834,0.033
						c0.305,0.006,0.549,0.012,0.741,0.016C290.59,252.693,290.679,252.698,290.684,252.703c0.005,0.005-0.073,0.011-0.231,0.016
						c-0.184,0.004-0.418,0.009-0.711,0.016c-0.665,0.008-1.594,0.019-2.78,0.033c-2.473,0.017-6.012,0.041-10.423,0.071
						c-8.948,0.028-21.423,0.068-35.68,0.113l-0.248,0.001l0-0.249c-0.001-2.119-0.003-4.283-0.004-6.483
						c0-1.1-0.001-2.209-0.001-3.326c0-0.558,0-1.119,0-1.682l0-0.845v-0.424v-0.212v-0.106v-0.053v-0.027v-0.013v-0.007v-0.003
						c0.508-0.508,0.143-0.141,0.257-0.254c20.353,0.041,38.446,0.077,49.822,0.099l0.156,0l-0.001,0.154
						c-0.037,4.164-0.065,7.466-0.085,9.763c-0.016,1.094-0.029,1.947-0.038,2.559c-0.007,0.266-0.012,0.48-0.016,0.649
						C290.694,252.638,290.689,252.708,290.684,252.703z"/>
				</g>
			</g>
		</g>
		<g>
			<g>
				<g>
					<path style="fill:#E0E0E0;" d="M297.44,239.522c-0.006-0.006-0.013-0.091-0.019-0.251c-0.005-0.189-0.012-0.418-0.02-0.698
						c-0.011-0.649-0.026-1.53-0.046-2.643c-0.024-2.311-0.057-5.575-0.098-9.589l0.182,0.182
						c-7.755,0.019-18.306,0.044-29.934,0.071c-0.228,0.227,0.307-0.309,0.252-0.253v0.003v0.007v0.013v0.027v0.054v0.109l0,0.217
						v0.432l0,0.862c0,0.573,0,1.143-0.001,1.709c-0.001,1.133-0.002,2.252-0.002,3.355c-0.003,2.205-0.006,4.343-0.009,6.391
						l-0.241-0.242c8.642,0.046,16.082,0.086,21.415,0.115c2.63,0.028,4.738,0.051,6.238,0.067c0.701,0.012,1.259,0.023,1.682,0.03
						C297.224,239.503,297.43,239.512,297.44,239.522c0.01,0.01-0.176,0.02-0.543,0.03c-0.411,0.008-0.952,0.018-1.632,0.03
						c-1.487,0.016-3.576,0.038-6.183,0.067c-5.373,0.029-12.87,0.068-21.578,0.115l-0.242,0.001l0-0.243
						c-0.003-2.048-0.006-4.186-0.009-6.391c-0.001-1.103-0.002-2.222-0.002-3.355c0-0.566,0-1.136-0.001-1.709l0-0.862v-0.432
						v-0.217v-0.109v-0.054v-0.027v-0.013v-0.007v-0.003c-0.056,0.053,0.482-0.482,0.256-0.255
						c11.628,0.028,22.179,0.053,29.934,0.071l0.184,0.001l-0.002,0.182c-0.041,4.06-0.074,7.362-0.098,9.7
						c-0.019,1.095-0.034,1.963-0.046,2.602C297.465,239.232,297.452,239.535,297.44,239.522z"/>
				</g>
			</g>
		</g>
	</g>
	<g>
		<g>
			<g>
				<g>
					<path style="fill:#E0E0E0;" d="M167.828,399.234c-0.005-0.005-0.01-0.086-0.015-0.239c-0.004-0.177-0.009-0.399-0.016-0.676
						c-0.009-0.62-0.021-1.485-0.038-2.594c-0.02-2.275-0.049-5.547-0.085-9.671l0.154,0.154
						c-11.376,0.023-29.469,0.059-49.822,0.099c0.112-0.113-0.256,0.253,0.251-0.253v0.003v0.007v0.013v0.027v0.053v0.106l0,0.212
						v0.423v0.845c0,0.563,0,1.123,0,1.682c0,1.117-0.001,2.226-0.001,3.326c-0.001,2.2-0.003,4.364-0.004,6.483l-0.248-0.248
						c14.188,0.045,26.603,0.085,35.507,0.113c4.435,0.03,7.994,0.054,10.48,0.071c1.209,0.014,2.156,0.025,2.834,0.033
						c0.305,0.006,0.549,0.012,0.741,0.016C167.734,399.223,167.823,399.228,167.828,399.234c0.005,0.005-0.073,0.011-0.231,0.016
						c-0.184,0.004-0.418,0.009-0.711,0.016c-0.665,0.008-1.594,0.019-2.78,0.033c-2.473,0.017-6.012,0.041-10.423,0.071
						c-8.948,0.028-21.423,0.068-35.68,0.113l-0.248,0.001l0-0.249c-0.001-2.12-0.003-4.283-0.004-6.483
						c0-1.1-0.001-2.209-0.001-3.326c0-0.558,0-1.119,0-1.682l0-0.845v-0.423v-0.212v-0.106v-0.053v-0.027v-0.013v-0.007v-0.003
						c0.508-0.508,0.143-0.141,0.257-0.254c20.353,0.041,38.446,0.077,49.822,0.099l0.156,0l-0.001,0.154
						c-0.036,4.164-0.065,7.466-0.085,9.763c-0.016,1.094-0.029,1.947-0.038,2.559c-0.007,0.266-0.012,0.48-0.016,0.649
						C167.839,399.168,167.834,399.239,167.828,399.234z"/>
				</g>
			</g>
		</g>
		<g>
			<g>
				<g>
					<path style="fill:#E0E0E0;" d="M174.584,386.053c-0.006-0.006-0.013-0.091-0.019-0.251c-0.005-0.189-0.012-0.418-0.02-0.698
						c-0.011-0.649-0.026-1.53-0.046-2.643c-0.024-2.311-0.057-5.575-0.098-9.589l0.182,0.182
						c-7.755,0.019-18.306,0.044-29.934,0.072c-0.228,0.227,0.307-0.309,0.252-0.253v0.003v0.007v0.014v0.027v0.054v0.108l0,0.217
						v0.432l0,0.862c0,0.573,0,1.143-0.001,1.709c-0.001,1.133-0.002,2.252-0.002,3.355c-0.003,2.205-0.006,4.343-0.009,6.391
						l-0.242-0.242c8.642,0.046,16.082,0.086,21.415,0.115c2.63,0.028,4.738,0.051,6.238,0.067c0.701,0.012,1.258,0.023,1.682,0.03
						C174.368,386.033,174.574,386.043,174.584,386.053s-0.176,0.02-0.543,0.03c-0.411,0.008-0.952,0.018-1.632,0.03
						c-1.487,0.016-3.576,0.038-6.183,0.067c-5.373,0.029-12.87,0.068-21.578,0.115l-0.241,0.001l0-0.243
						c-0.003-2.048-0.006-4.186-0.009-6.391c-0.001-1.103-0.001-2.222-0.002-3.355c0-0.566,0-1.136-0.001-1.709l0-0.862v-0.432
						v-0.217v-0.108v-0.054v-0.027v-0.014v-0.007v-0.003c-0.056,0.053,0.482-0.482,0.256-0.255
						c11.628,0.028,22.179,0.053,29.934,0.071l0.184,0.001l-0.002,0.182c-0.041,4.06-0.074,7.362-0.098,9.7
						c-0.019,1.095-0.034,1.963-0.046,2.602C174.609,385.763,174.597,386.065,174.584,386.053z"/>
				</g>
			</g>
		</g>
	</g>
</g>
<g id="Background_Simple" style="display:none;">
	<path style="display:inline;fill:#F5F5F5;" d="M76.639,105.154l1.45-3.347c12.22-28.216,38.632-47.847,69.019-50.087
		c3.906-0.288,7.834-0.294,11.75-0.003c28.196,2.094,54.878,19.527,68.407,44.694c7.956,14.801,12.051,32.54,24.78,43.406
		c16.566,14.141,40.995,11.296,62.32,7.681c21.325-3.615,45.779-6.399,62.284,7.815c10.337,8.902,15.161,22.921,16.308,36.59
		c3.034,36.19-17.58,71.759-47.22,92.107c-29.641,20.348-66.929,26.936-102.74,24.707c-50.167-3.123-100.306-23.758-133.951-61.655
		S60.513,153.273,76.639,105.154z"/>
</g>
<g id="Floor">
	<g>
		<path style="fill:#263238;" d="M479.415,462.745c0,0.144-102.721,0.26-229.404,0.26c-126.727,0-229.426-0.117-229.426-0.26
			s102.699-0.26,229.426-0.26C376.694,462.485,479.415,462.602,479.415,462.745z"/>
	</g>
</g>
<g id="Plant">
	<g>
		<g>
			<g>
				<g>
					<path style="fill:#263238;" d="M91.783,436.59c-0.006,0.001-0.021-0.089-0.043-0.263c-0.023-0.192-0.053-0.448-0.092-0.776
						c-0.078-0.701-0.19-1.703-0.333-2.984c-0.296-2.591-0.747-6.337-1.423-10.949c-1.353-9.22-3.581-21.93-7.298-35.66
						c-1.858-6.866-3.948-13.317-6.126-19.08c-2.202-5.754-4.501-10.812-6.68-14.928c-2.176-4.12-4.231-7.29-5.746-9.408
						c-0.73-1.08-1.37-1.864-1.777-2.417c-0.197-0.264-0.351-0.472-0.467-0.626c-0.104-0.142-0.154-0.217-0.15-0.221
						c0.005-0.004,0.065,0.064,0.178,0.199c0.122,0.149,0.285,0.35,0.494,0.605c0.425,0.539,1.084,1.311,1.832,2.381
						c1.552,2.098,3.644,5.256,5.854,9.371c2.212,4.112,4.54,9.171,6.763,14.93c2.199,5.768,4.302,12.228,6.163,19.103
						c3.723,13.751,5.914,26.482,7.205,35.717c0.646,4.62,1.059,8.374,1.314,10.97c0.131,1.298,0.215,2.307,0.268,2.992
						c0.024,0.329,0.043,0.587,0.057,0.779C91.787,436.5,91.789,436.59,91.783,436.59z"/>
				</g>
			</g>
		</g>
		<g>
			<g>
				<path style="fill:#455A64;" d="M65.936,331.195c-1.49-4.547-3.202-9.021-5.128-13.401c-2.84-6.456-6.604-13.155-13.05-16.016
					c-2.975-1.321-6.88-1.517-9.106,0.857c-1.908,2.035-1.897,5.273-0.918,7.885c0.978,2.612,2.75,4.838,4.119,7.267
					c1.938,3.436,3.061,7.258,4.413,10.965c1.351,3.707,3,7.413,5.753,10.239c2.753,2.826,6.817,4.644,10.675,3.817l2.345-2.829
					c1.256-0.952,1.831-2.599,1.846-4.174C66.898,334.228,66.427,332.692,65.936,331.195z"/>
			</g>
		</g>
		<g style="opacity:0.3;">
			<g>
				<path d="M56.118,309.111c0,0-2.959,26.257,4.37,33.975c0,0,1.16,0.578,2.613-0.772c1.008-0.937-5.213-30.4-5.213-30.4
					L56.118,309.111z"/>
			</g>
		</g>
		<g>
			<g>
				<g>
					<path style="fill:#263238;" d="M118.022,359.421c0.005,0.003-0.028,0.068-0.097,0.193c-0.08,0.139-0.183,0.319-0.313,0.546
						c-0.294,0.496-0.707,1.193-1.234,2.081c-0.271,0.452-0.571,0.953-0.898,1.499c-0.319,0.553-0.644,1.167-1.006,1.819
						c-0.71,1.311-1.569,2.777-2.384,4.469c-0.422,0.839-0.863,1.717-1.323,2.632c-0.456,0.917-0.875,1.898-1.339,2.898
						c-0.95,1.992-1.816,4.186-2.761,6.48c-1.792,4.626-3.546,9.797-5.021,15.33c-1.436,5.546-2.451,10.912-3.165,15.822
						c-0.304,2.462-0.629,4.798-0.781,7.001c-0.087,1.1-0.205,2.16-0.258,3.183c-0.049,1.023-0.097,2.004-0.142,2.942
						c-0.122,1.874-0.095,3.573-0.121,5.064c-0.005,0.746-0.024,1.44-0.018,2.078c0.017,0.637,0.032,1.22,0.046,1.747
						c0.022,1.032,0.039,1.842,0.051,2.418c0.002,0.261,0.003,0.469,0.005,0.63c-0.001,0.142-0.004,0.215-0.01,0.215
						c-0.006,0-0.014-0.072-0.025-0.213c-0.01-0.16-0.023-0.367-0.039-0.628c-0.028-0.576-0.067-1.386-0.117-2.417
						c-0.023-0.527-0.048-1.111-0.076-1.748c-0.016-0.639-0.007-1.334-0.011-2.081c0.008-1.493-0.037-3.195,0.07-5.073
						c0.038-0.94,0.078-1.924,0.12-2.949c0.046-1.025,0.158-2.088,0.239-3.191c0.14-2.208,0.454-4.551,0.751-7.021
						c0.698-4.924,1.705-10.307,3.146-15.866c1.479-5.548,3.247-10.729,5.059-15.36c0.955-2.296,1.833-4.49,2.797-6.482
						c0.471-1,0.897-1.98,1.36-2.896c0.468-0.913,0.917-1.79,1.345-2.627c0.831-1.688,1.706-3.148,2.433-4.452
						c0.371-0.648,0.704-1.258,1.033-1.807c0.337-0.541,0.646-1.037,0.926-1.485c0.551-0.874,0.983-1.56,1.29-2.048
						c0.142-0.219,0.255-0.393,0.343-0.528C117.974,359.477,118.017,359.418,118.022,359.421z"/>
				</g>
			</g>
		</g>
		<g>
			<g>
				<path style="fill:#455A64;" d="M140.219,345.665c-0.377-0.02-0.771-0.045-1.097-0.236c-0.326-0.191-0.555-0.605-0.41-0.954
					c0.124-0.299,0.458-0.441,0.764-0.548c2.351-0.825,4.84-1.247,7.331-1.263c1.731-2.539,2.601-5.093,1.986-7.453
					c-1.277-4.897-9.368-1.916-17.672,1.49c-8.303,3.407-14.478,7.452-18.736,15.755c-4.258,8.304,1.278,12.136,1.278,12.136
					s0.213,1.916,8.303,0s11.071-9.356,17.033-14.052c1.869-1.472,3.654-3.047,5.185-4.666
					C142.862,345.805,141.541,345.735,140.219,345.665z"/>
			</g>
		</g>
		<g>
			<g>
				<path style="fill:#455A64;" d="M115.934,279.958c0,0-7.483-0.904-14.7,12.409s-9.031,38.061-4.578,43.791
					c4.453,5.729,6.693-8.482,6.071-8.219c-0.622,0.262,13.207-47.392,13.207-47.392"/>
			</g>
		</g>
		<g style="opacity:0.3;">
			<g>
				<path d="M115.934,279.958c0,0-7.483-0.904-14.7,12.409s-9.031,38.061-4.578,43.791c4.453,5.729,6.693-8.482,6.071-8.219
					c-0.622,0.262,13.207-47.392,13.207-47.392"/>
			</g>
		</g>
		<g>
			<g>
				<g>
					<path style="fill:#263238;" d="M104.217,341.934c0.006,0.001,0.002,0.083-0.012,0.244c-0.018,0.178-0.041,0.413-0.07,0.711
						c-0.072,0.645-0.173,1.561-0.303,2.73c-0.281,2.39-0.684,5.813-1.18,10.034c-1.033,8.486-2.455,20.176-4.026,33.088
						c-0.791,6.462-1.584,12.613-2.189,18.219c-0.611,5.605-1.04,10.665-1.259,14.922c-0.228,4.257-0.26,7.708-0.226,10.091
						c0.008,1.192,0.043,2.117,0.062,2.745c0.007,0.299,0.012,0.536,0.015,0.714c0.002,0.161-0.001,0.244-0.007,0.244
						c-0.006,0-0.016-0.082-0.029-0.242c-0.012-0.178-0.029-0.414-0.05-0.713c-0.042-0.627-0.099-1.552-0.128-2.745
						c-0.075-2.385-0.081-5.842,0.116-10.107c0.188-4.264,0.592-9.333,1.186-14.944c0.588-5.613,1.372-11.765,2.163-18.227
						c1.61-12.907,3.068-24.593,4.127-33.076c0.543-4.215,0.983-7.634,1.291-10.021c0.158-1.166,0.281-2.079,0.368-2.722
						c0.044-0.296,0.078-0.53,0.104-0.707C104.195,342.014,104.211,341.933,104.217,341.934z"/>
				</g>
			</g>
		</g>
		<g>
			<g>
				<g>
					<path style="fill:#263238;" d="M93.239,436.59c-0.006,0.001-0.019-0.065-0.039-0.195c-0.021-0.149-0.047-0.339-0.08-0.576
						c-0.066-0.532-0.157-1.274-0.274-2.217c-0.232-1.926-0.535-4.718-0.895-8.168c-0.73-6.898-1.629-16.441-3.053-26.925
						c-0.7-5.245-1.539-10.216-2.385-14.721c-0.44-2.249-0.861-4.386-1.325-6.37c-0.423-1.994-0.898-3.832-1.323-5.512
						c-0.4-1.687-0.867-3.184-1.233-4.512c-0.189-0.66-0.365-1.276-0.528-1.845c-0.179-0.56-0.343-1.073-0.491-1.537
						c-0.284-0.907-0.508-1.62-0.668-2.131c-0.068-0.229-0.123-0.413-0.165-0.557c-0.035-0.126-0.051-0.192-0.045-0.194
						c0.006-0.002,0.032,0.06,0.079,0.182c0.051,0.141,0.117,0.321,0.198,0.546c0.175,0.506,0.42,1.213,0.731,2.112
						c0.157,0.462,0.331,0.972,0.52,1.529c0.182,0.562,0.357,1.179,0.556,1.839c0.384,1.324,0.868,2.819,1.284,4.504
						c0.441,1.679,0.931,3.516,1.367,5.511c0.478,1.985,0.909,4.123,1.359,6.373c0.864,4.507,1.714,9.484,2.415,14.734
						c1.425,10.495,2.285,20.044,2.952,26.948c0.329,3.434,0.597,6.221,0.784,8.178c0.089,0.947,0.159,1.691,0.209,2.224
						c0.019,0.239,0.034,0.43,0.045,0.579C93.244,436.522,93.245,436.59,93.239,436.59z"/>
				</g>
			</g>
		</g>
		<g>
			<g>
				<g>
					<path style="fill:#263238;" d="M89.949,437.504c-0.006,0.001-0.021-0.051-0.045-0.154c-0.026-0.124-0.058-0.274-0.098-0.458
						c-0.084-0.433-0.198-1.023-0.342-1.768c-0.142-0.769-0.315-1.709-0.555-2.794c-0.238-1.085-0.469-2.328-0.807-3.684
						c-0.32-1.36-0.664-2.852-1.097-4.437c-0.4-1.594-0.896-3.278-1.409-5.052c-1.066-3.537-2.345-7.393-3.845-11.385
						c-3.025-7.978-6.313-14.977-8.795-19.985c-1.243-2.504-2.27-4.521-2.992-5.908c-0.345-0.676-0.618-1.212-0.818-1.605
						c-0.082-0.169-0.15-0.308-0.205-0.421c-0.044-0.096-0.065-0.146-0.059-0.149c0.005-0.003,0.036,0.042,0.091,0.132
						c0.064,0.109,0.141,0.242,0.236,0.405c0.215,0.385,0.507,0.911,0.876,1.574c0.759,1.368,1.82,3.369,3.092,5.861
						c2.541,4.984,5.87,11.978,8.901,19.973c1.502,3.999,2.775,7.867,3.826,11.417c0.506,1.781,0.993,3.471,1.381,5.071
						c0.422,1.591,0.752,3.089,1.058,4.455c0.323,1.362,0.537,2.611,0.757,3.701c0.222,1.089,0.376,2.035,0.497,2.808
						c0.117,0.75,0.21,1.345,0.278,1.781c0.026,0.187,0.046,0.339,0.064,0.464C89.951,437.449,89.955,437.504,89.949,437.504z"/>
				</g>
			</g>
		</g>
		<g>
			<g>
				<path style="fill:#455A64;" d="M115.934,279.958c-6.839,4.225-11.549,11.345-14.081,18.975c-1.238,3.731-1.999,7.6-2.757,11.457
					c-1.237,6.292-2.478,12.616-2.693,19.025c-0.09,2.692-0.455,6.844,1.264,8.917c1.085,1.31,1.281,2.453,2.98,2.533l6.689-18.725
					c2.37-6.55,3.457-13.061,5.393-20.125c1.204-4.391,3.558-11.233,3.877-14.631C116.954,283.667,118.22,280.478,115.934,279.958z"
					/>
			</g>
		</g>
		<g>
			<g>
				<g>
					<path style="fill:#263238;" d="M94.243,434.421c-0.006,0-0.016-0.083-0.031-0.246c-0.014-0.18-0.032-0.42-0.055-0.723
						c-0.042-0.657-0.102-1.59-0.179-2.783c-0.141-2.438-0.343-5.93-0.592-10.237c-0.106-2.163-0.288-4.526-0.355-7.074
						c-0.083-2.545-0.147-5.265-0.169-8.129c-0.045-5.726,0.087-12.027,0.554-18.622c0.457-6.599,1.276-12.851,2.132-18.512
						c0.857-5.663,1.739-10.743,2.471-15.009c0.726-4.252,1.315-7.7,1.725-10.106c0.198-1.178,0.353-2.1,0.463-2.749
						c0.053-0.3,0.096-0.536,0.127-0.714c0.031-0.161,0.049-0.242,0.055-0.241c0.006,0.001-0.001,0.085-0.02,0.247
						c-0.023,0.18-0.054,0.417-0.093,0.719c-0.094,0.651-0.227,1.577-0.398,2.76c-0.358,2.395-0.911,5.855-1.616,10.126
						c-0.701,4.272-1.557,9.355-2.396,15.016c-0.838,5.66-1.645,11.902-2.102,18.489c-0.466,6.584-0.608,12.875-0.581,18.595
						c0.013,2.86,0.066,5.578,0.137,8.121c0.054,2.542,0.222,4.91,0.312,7.072c0.203,4.309,0.367,7.803,0.481,10.242
						c0.049,1.194,0.087,2.128,0.113,2.786c0.009,0.304,0.016,0.544,0.021,0.725C94.251,434.337,94.249,434.421,94.243,434.421z"/>
				</g>
			</g>
		</g>
		<g style="opacity:0.3;">
			<g>
				<path d="M109.708,314.227c0,0-15.647,7.234-12.041,24.105l2.722,3.602L109.708,314.227z"/>
			</g>
		</g>
		<g>
			<g>
				<path style="fill:#455A64;" d="M141.251,307.414c-0.409-0.318-0.963-0.356-1.48-0.374c-6.224-0.212-12.485,0.742-18.363,2.798
					c-5.584,1.953-10.873,4.939-15.022,9.155c-4.149,4.216-7.104,9.718-7.754,15.598c-0.409,3.701,0.169,7.668,2.435,10.622
					c2.266,2.954,6.475,4.568,9.898,3.103l-0.249-0.018c2.141-0.368,4.183-1.815,5.515-3.608c1.923-2.589,2.791-5.784,4.025-8.764
					c2.243-5.415,5.813-10.276,10.308-14.038c-1.781,0.038-3.569-0.347-5.176-1.115c6.476-0.66,12.536-4.586,15.785-10.227
					C141.744,309.555,142.155,308.116,141.251,307.414z"/>
			</g>
		</g>
		<g>
			<g>
				<g>
					<path style="fill:#263238;" d="M141.858,308.571c0.004,0.011-0.186,0.086-0.552,0.218c-0.395,0.138-0.93,0.326-1.603,0.561
						c-1.393,0.485-3.414,1.169-5.882,2.091c-2.465,0.927-5.381,2.095-8.473,3.687c-3.08,1.6-6.35,3.64-9.314,6.339
						c-2.976,2.688-5.236,5.829-6.842,8.903c-1.627,3.071-2.674,6.041-3.417,8.562c-0.744,2.525-1.188,4.613-1.483,6.056
						c-0.139,0.699-0.249,1.254-0.331,1.665c-0.076,0.381-0.122,0.58-0.134,0.578c-0.012-0.002,0.011-0.205,0.065-0.59
						c0.055-0.385,0.134-0.952,0.266-1.678c0.254-1.453,0.662-3.554,1.379-6.099c0.716-2.54,1.744-5.538,3.369-8.643
						c1.603-3.108,3.884-6.295,6.892-9.011c2.995-2.727,6.296-4.773,9.402-6.367c3.119-1.585,6.054-2.733,8.535-3.632
						c2.484-0.894,4.518-1.543,5.925-1.988c0.682-0.21,1.223-0.376,1.624-0.499C141.657,308.612,141.855,308.56,141.858,308.571z"/>
				</g>
			</g>
		</g>
		<g>
			<g>
				<g>
					<path style="fill:#263238;" d="M147.83,333.559c0.005,0.011-0.135,0.097-0.408,0.251c-0.304,0.167-0.702,0.386-1.198,0.658
						c-0.526,0.276-1.161,0.626-1.884,1.059c-0.727,0.426-1.565,0.894-2.454,1.473c-0.45,0.283-0.92,0.578-1.409,0.886
						c-0.48,0.324-0.979,0.661-1.495,1.01c-1.043,0.683-2.104,1.49-3.237,2.313c-2.227,1.701-4.606,3.662-6.971,5.869
						c-2.35,2.224-4.457,4.476-6.287,6.598c-0.887,1.085-1.757,2.094-2.496,3.099c-0.377,0.496-0.741,0.975-1.091,1.436
						c-0.333,0.472-0.653,0.926-0.959,1.36c-0.626,0.857-1.132,1.671-1.593,2.376c-0.228,0.351-0.442,0.68-0.64,0.985
						c-0.183,0.307-0.352,0.59-0.506,0.848c-0.294,0.483-0.53,0.871-0.71,1.168c-0.166,0.265-0.258,0.402-0.269,0.396
						c-0.011-0.006,0.061-0.154,0.207-0.43c0.166-0.305,0.384-0.705,0.654-1.202c0.146-0.263,0.307-0.552,0.481-0.865
						c0.191-0.31,0.397-0.645,0.617-1.002c0.447-0.717,0.94-1.544,1.555-2.412c0.301-0.44,0.616-0.9,0.944-1.378
						c0.347-0.467,0.707-0.952,1.079-1.453c0.732-1.016,1.597-2.036,2.481-3.131c1.825-2.142,3.934-4.412,6.294-6.645
						c2.375-2.216,4.771-4.179,7.017-5.872c1.144-0.819,2.214-1.621,3.268-2.296c0.521-0.344,1.026-0.676,1.511-0.996
						c0.495-0.302,0.97-0.592,1.425-0.87c0.9-0.567,1.749-1.021,2.487-1.432c0.734-0.418,1.381-0.752,1.917-1.01
						c0.509-0.249,0.918-0.448,1.23-0.601C147.673,333.613,147.824,333.548,147.83,333.559z"/>
				</g>
			</g>
		</g>
		<g>
			<g>
				<path style="fill:#455A64;" d="M68.099,297.526c-1.258,0.479-13.839,5.11-9.794,27.891c0,0,1.064,14.478,3.194,16.607
					c2.129,2.129,4.897,3.832,4.897,3.832h-3.593c0,0-0.239,10.858,7.426,14.691s11.374,3.143,11.374,3.143
					s8.427-1.653,9.917-11.234c1.49-9.581-3.619-26.614-8.304-34.491C78.532,310.087,77.042,294.119,68.099,297.526z"/>
			</g>
		</g>
		<g>
			<g>
				<g>
					<path style="fill:#263238;" d="M67.326,298.224c0.006,0.001,0.003,0.061-0.008,0.176c-0.016,0.135-0.035,0.302-0.059,0.509
						c-0.04,0.448-0.178,1.099-0.226,1.951c-0.162,1.698-0.212,4.173,0.033,7.212c0.246,3.039,0.825,6.633,1.73,10.565
						c0.916,3.93,2.142,8.198,3.543,12.643c2.799,8.887,5.332,16.93,7.175,22.784c0.896,2.9,1.625,5.256,2.138,6.916
						c0.239,0.798,0.428,1.428,0.564,1.886c0.056,0.2,0.102,0.362,0.138,0.493c0.029,0.112,0.041,0.17,0.036,0.172
						c-0.006,0.002-0.029-0.053-0.07-0.161c-0.045-0.128-0.102-0.287-0.171-0.483c-0.152-0.453-0.362-1.076-0.627-1.866
						c-0.539-1.652-1.303-3.997-2.244-6.883c-1.869-5.846-4.436-13.879-7.273-22.754c-1.402-4.449-2.622-8.73-3.523-12.676
						c-0.89-3.948-1.447-7.562-1.662-10.618c-0.215-3.056-0.126-5.544,0.078-7.245c0.069-0.854,0.228-1.504,0.291-1.949
						c0.038-0.204,0.069-0.37,0.093-0.504C67.306,298.281,67.32,298.223,67.326,298.224z"/>
				</g>
			</g>
		</g>
		<g>
			<g>
				<path style="fill:#455A64;" d="M71.42,372.117c-1.386-6.659-6.954-11.569-12.521-15.478
					c-6.046-4.245-12.484-7.932-19.205-10.999c-2.669-1.218-5.703-2.353-8.464-1.361c-0.033,0.012-0.068,0.026-0.106,0.043
					c-0.562,0.255-0.904,0.838-0.904,1.455v0.198c0.634,5.733,4.708,10.617,8.909,14.569c4.201,3.952,9.085,7.116,13.352,10.996
					l4.307-0.416c-1.51,0.458-2.509,2.414-2.179,4.071c0.395,1.978,2.003,3.465,3.608,4.685c2.744,2.087,5.747,3.835,8.918,5.189
					c0.442,0.189,0.916,0.309,1.396,0.305c2.285-0.022,2.787-2.372,2.959-4.272C71.763,378.107,72.032,375.06,71.42,372.117z"/>
			</g>
		</g>
		<g>
			<g>
				<g>
					<path style="fill:#263238;" d="M30.567,344.94c0.005-0.011,0.194,0.068,0.548,0.229c0.38,0.177,0.893,0.417,1.54,0.72
						c1.333,0.634,3.259,1.56,5.611,2.76c4.681,2.409,11.175,5.904,17.301,11.201c3.059,2.639,5.685,5.487,7.757,8.311
						c2.079,2.822,3.594,5.61,4.646,8.038c1.045,2.435,1.638,4.502,1.963,5.944c0.161,0.722,0.271,1.285,0.326,1.671
						c0.062,0.384,0.088,0.586,0.077,0.589c-0.012,0.002-0.062-0.196-0.146-0.575c-0.077-0.38-0.209-0.938-0.389-1.652
						c-0.364-1.426-0.99-3.471-2.057-5.877c-1.074-2.4-2.6-5.156-4.678-7.946c-2.071-2.793-4.685-5.615-7.727-8.238
						c-6.089-5.265-12.539-8.783-17.186-11.245c-2.335-1.227-4.243-2.186-5.558-2.858c-0.635-0.327-1.139-0.586-1.511-0.779
						C30.74,345.051,30.562,344.95,30.567,344.94z"/>
				</g>
			</g>
		</g>
		<g>
			<g>
				<g>
					<path style="fill:#263238;" d="M57.198,330.398c-0.011,0.005-0.069-0.098-0.168-0.298c-0.114-0.238-0.253-0.528-0.421-0.881
						c-0.377-0.817-0.886-1.918-1.504-3.257c-1.279-2.742-3.044-6.542-5.44-10.484c-1.207-1.97-2.363-3.843-3.499-5.485
						c-1.141-1.638-2.263-3.046-3.306-4.135c-1.039-1.093-1.962-1.897-2.625-2.42c-0.662-0.525-1.041-0.8-1.025-0.825
						c0.007-0.01,0.109,0.048,0.298,0.168c0.185,0.124,0.471,0.292,0.81,0.549c0.692,0.493,1.648,1.275,2.72,2.356
						c1.077,1.077,2.229,2.483,3.392,4.122c1.158,1.644,2.325,3.516,3.534,5.488c2.41,3.964,4.145,7.793,5.367,10.564
						c0.608,1.389,1.083,2.519,1.403,3.304c0.144,0.363,0.264,0.662,0.361,0.907C57.173,330.281,57.21,330.393,57.198,330.398z"/>
				</g>
			</g>
		</g>
		<g>
			<g>
				<path style="fill:#FF725E;" d="M118.614,415.776l-23.016-0.145v-0.035l-2.744,0.017l-2.744-0.017v0.035l-23.016,0.145
					c-0.12,1.431-12.851,37.785,12.549,48.09H90.11h5.488h10.467C131.466,453.561,118.734,417.207,118.614,415.776z"/>
			</g>
		</g>
		<g>
			<g>
				<g>
					<path style="fill:#263238;" d="M121.462,426.016c0,0.133-12.789,0.241-28.561,0.241c-15.777,0-28.563-0.108-28.563-0.241
						c0-0.133,12.786-0.241,28.563-0.241C108.674,425.775,121.462,425.883,121.462,426.016z"/>
				</g>
			</g>
		</g>
	</g>
</g>
<g id="Luggage_Cart">
	<g>
		<g>
			<g>
				<g>
					<path style="fill:#FF725E;" d="M339.025,444.048h-7.433V199.922c0-43.216-32.477-78.375-72.396-78.375
						c-39.92,0-72.397,35.159-72.397,78.375v244.127h-7.433V199.922c0-47.314,35.811-85.808,79.829-85.808
						c44.018,0,79.83,38.493,79.83,85.808V444.048z"/>
					<g>
						<path style="fill:#263238;" d="M339.026,444.048c-0.001-1.438-0.07-83.352-0.184-218c-0.003-8.413-0.006-17.026-0.009-25.832
							c-0.033-4.397-0.31-8.839-0.921-13.29c-0.662-4.443-1.632-8.885-2.94-13.279c-2.624-8.785-6.725-17.318-12.164-25.141
							c-5.472-7.797-12.375-14.824-20.476-20.467c-8.092-5.642-17.416-9.855-27.391-12.014c-9.964-2.178-20.552-2.247-30.844-0.118
							c-10.296,2.126-20.264,6.529-29.04,12.847c-8.791,6.302-16.373,14.51-22.195,23.956c-5.832,9.443-9.899,20.132-11.854,31.329
							c-0.994,5.599-1.411,11.316-1.395,17.07c0.001,5.763,0.001,11.558,0.002,17.383c0.002,23.302,0.004,47.095,0.006,71.316
							c0.002,48.443,0.004,98.599,0.005,149.969c0,1.461,0,2.92,0,4.272l-0.26-0.26c2.608,0,5.078,0,7.433,0l-0.26,0.26
							c0.002-47.586,0.004-94.083,0.005-139.084c0.002-22.501,0.004-44.628,0.006-66.33c0.001-10.851,0.003-21.597,0.004-32.229
							c0.004-5.307-0.082-10.625,0.538-15.87c0.579-5.242,1.647-10.4,3.182-15.385c3.065-9.97,8.007-19.236,14.442-27.135
							c6.428-7.899,14.347-14.444,23.175-19.011c8.818-4.581,18.509-7.161,28.164-7.596c9.655-0.461,19.256,1.187,27.971,4.655
							c8.73,3.451,16.568,8.648,23.124,14.921c6.566,6.276,11.873,13.612,15.832,21.434c3.904,7.852,6.541,16.158,7.799,24.512
							c0.622,4.176,0.982,8.353,0.995,12.495c0.003,4.132,0.005,8.222,0.008,12.269c-0.092,129.497-0.153,215.576-0.165,232.354
							l-0.026-0.026C337.727,444.044,338.85,444.048,339.026,444.048c-0.176,0.001-1.298,0.005-7.433,0.026l-0.026,0v-0.026
							c-0.012-16.778-0.073-102.857-0.165-232.354c-0.08-8.088,0.363-16.389-1.013-24.704c-1.257-8.314-3.887-16.577-7.775-24.387
							c-3.943-7.78-9.225-15.074-15.758-21.311c-6.522-6.234-14.316-11.396-22.991-14.821c-8.661-3.442-18.198-5.074-27.789-4.613
							c-9.59,0.436-19.213,3.002-27.971,7.556c-8.768,4.54-16.635,11.046-23.022,18.899c-6.393,7.853-11.303,17.065-14.347,26.978
							c-1.524,4.956-2.585,10.085-3.16,15.296c-0.615,5.213-0.529,10.498-0.531,15.817c0.001,10.633,0.002,21.378,0.004,32.229
							c0.002,21.703,0.004,43.83,0.006,66.33c0.002,45.002,0.004,91.499,0.005,139.084v0.26h-0.26c-2.355,0-4.825,0-7.433,0h-0.26
							v-0.26c0-1.351,0-2.811,0-4.272c0.002-51.371,0.004-101.527,0.005-149.969c0.002-24.221,0.004-48.014,0.006-71.316
							c0.001-5.826,0.001-11.62,0.002-17.383c-0.015-5.771,0.406-11.528,1.406-17.154c1.969-11.257,6.061-22.003,11.928-31.496
							c5.858-9.496,13.485-17.749,22.33-24.085c8.829-6.352,18.86-10.779,29.221-12.914c10.357-2.139,21.008-2.065,31.031,0.131
							c10.034,2.176,19.41,6.419,27.543,12.095c8.143,5.677,15.077,12.744,20.571,20.582c5.462,7.863,9.576,16.439,12.207,25.265
							c1.312,4.414,2.283,8.877,2.945,13.339c0.611,4.471,0.886,8.932,0.916,13.346c-0.003,8.816-0.006,17.439-0.009,25.861
							C339.096,360.707,339.027,442.612,339.026,444.048z"/>
					</g>
				</g>
			</g>
			<g>
				<circle style="fill:#263238;" cx="170.432" cy="461.284" r="11.313"/>
				<circle style="fill:#455A64;" cx="170.432" cy="461.284" r="7.564"/>
			</g>
			<g>
				<circle style="fill:#263238;" cx="196.593" cy="461.284" r="11.313"/>
				<circle style="fill:#455A64;" cx="196.593" cy="461.284" r="7.564"/>
			</g>
			<g>
				<circle style="fill:#263238;" cx="303.086" cy="461.284" r="11.313"/>
				<circle style="fill:#455A64;" cx="303.086" cy="461.284" r="7.564"/>
			</g>
			<g>
				<circle style="fill:#263238;" cx="330.055" cy="461.284" r="11.313"/>
				<circle style="fill:#455A64;" cx="330.055" cy="461.284" r="7.564"/>
			</g>
			<g>
				<g>
					<rect x="174.086" y="392.282" style="fill:#455A64;" width="144.494" height="43.777"/>
					<g>
						<path style="fill:#263238;" d="M318.58,413.165c0,0.144-32.399,0.26-72.356,0.26c-39.971,0-72.363-0.117-72.363-0.26
							c0-0.144,32.392-0.26,72.363-0.26C286.181,412.905,318.58,413.022,318.58,413.165z"/>
					</g>
					<rect x="187.035" y="407.521" style="fill:#263238;" width="3.849" height="11.29"/>
					<rect x="276.229" y="407.521" style="fill:#263238;" width="3.849" height="11.29"/>
					<rect x="293.981" y="392.282" style="opacity:0.3;" width="24.599" height="43.777"/>
					<path style="fill:#263238;" d="M243.9,424.866l-1.368-8.952h-3.742l0.896,5.864c0.125,0.82-0.642,1.546-1.634,1.546h-12.737
						c-1.001,0-1.771-0.738-1.631-1.564l0.99-5.846h-3.691l-1.511,8.924c-0.213,1.261,0.962,2.387,2.49,2.387h19.443
						C242.92,427.225,244.091,426.118,243.9,424.866z"/>
					<rect x="219.673" y="415.007" style="fill:#263238;" width="5.621" height="4.15"/>
					<rect x="237.986" y="415.007" style="fill:#263238;" width="5.621" height="4.15"/>
				</g>
				<g>
					<rect x="189.136" y="358.035" style="fill:#455A64;" width="113.14" height="34.247"/>
					<g>
						<path style="fill:#263238;" d="M302.276,374.372c0,0.144-25.369,0.26-56.655,0.26c-31.298,0-56.661-0.117-56.661-0.26
							c0-0.144,25.363-0.26,56.661-0.26C276.907,374.112,302.276,374.228,302.276,374.372z"/>
					</g>
					<rect x="199.276" y="369.956" style="fill:#263238;" width="3.014" height="8.832"/>
					<rect x="269.115" y="369.956" style="fill:#263238;" width="3.014" height="8.832"/>
					<rect x="283.015" y="358.035" style="opacity:0.3;" width="19.261" height="34.247"/>
					<path style="fill:#263238;" d="M243.801,383.526l-1.071-7.003h-2.93l0.702,4.587c0.098,0.641-0.502,1.209-1.28,1.209h-9.973
						c-0.784,0-1.387-0.577-1.277-1.223l0.775-4.573h-2.89l-1.183,6.981c-0.167,0.986,0.753,1.868,1.95,1.868h15.224
						C243.034,385.371,243.951,384.505,243.801,383.526z"/>
					<rect x="224.831" y="375.813" style="fill:#263238;" width="4.401" height="3.247"/>
					<rect x="239.171" y="375.813" style="fill:#263238;" width="4.401" height="3.247"/>
				</g>
				<g>
					<path style="fill:#263238;" d="M318.152,392.383c0,0.144-32.053,0.26-71.583,0.26c-39.544,0-71.59-0.117-71.59-0.26
						c0-0.144,32.046-0.26,71.59-0.26C286.099,392.123,318.152,392.239,318.152,392.383z"/>
				</g>
			</g>
			<g>
				<g>
					<path style="fill:#FF725E;" d="M318.742,444.048h-7.433V199.922c0-43.216-32.477-78.375-72.397-78.375
						c-39.92,0-72.396,35.159-72.396,78.375v244.127h-7.433V199.922c0-47.314,35.811-85.808,79.829-85.808
						c44.018,0,79.83,38.493,79.83,85.808V444.048z"/>
					<g>
						<path style="fill:#263238;" d="M318.742,444.048c-0.001-1.438-0.07-83.352-0.184-218c-0.003-8.413-0.006-17.026-0.009-25.832
							c-0.033-4.397-0.31-8.839-0.921-13.29c-0.662-4.443-1.632-8.885-2.94-13.279c-2.624-8.785-6.725-17.318-12.164-25.141
							c-5.472-7.797-12.375-14.824-20.476-20.467c-8.092-5.642-17.416-9.855-27.391-12.014c-9.964-2.178-20.552-2.247-30.844-0.118
							c-10.296,2.126-20.264,6.529-29.04,12.847c-8.791,6.302-16.373,14.51-22.195,23.956c-5.832,9.443-9.899,20.132-11.854,31.329
							c-0.993,5.599-1.411,11.316-1.395,17.07c0.001,5.763,0.001,11.558,0.002,17.383c0.002,23.302,0.004,47.095,0.006,71.316
							c0.002,48.443,0.004,98.599,0.005,149.969c0,1.461,0,2.92,0,4.272l-0.26-0.26c2.608,0,5.078,0,7.433,0l-0.26,0.26
							c0.002-47.586,0.004-94.083,0.005-139.084c0.002-22.501,0.004-44.628,0.006-66.33c0.001-10.851,0.003-21.597,0.004-32.229
							c0.004-5.307-0.082-10.625,0.538-15.87c0.579-5.242,1.648-10.4,3.182-15.385c3.065-9.97,8.007-19.236,14.442-27.135
							c6.428-7.899,14.347-14.444,23.175-19.011c8.818-4.581,18.51-7.161,28.164-7.596c9.655-0.46,19.256,1.187,27.971,4.656
							c8.73,3.451,16.568,8.648,23.124,14.921c6.566,6.276,11.873,13.612,15.832,21.434c3.904,7.852,6.541,16.158,7.799,24.512
							c0.622,4.176,0.982,8.353,0.995,12.495c0.003,4.132,0.005,8.222,0.008,12.269c-0.092,129.497-0.153,215.576-0.165,232.354
							l-0.026-0.026C317.444,444.044,318.566,444.048,318.742,444.048c-0.175,0.001-1.298,0.005-7.433,0.026l-0.026,0v-0.026
							c-0.012-16.778-0.073-102.857-0.165-232.354c-0.08-8.088,0.363-16.389-1.013-24.704c-1.257-8.314-3.887-16.577-7.775-24.387
							c-3.943-7.78-9.225-15.074-15.758-21.311c-6.522-6.234-14.316-11.396-22.991-14.821c-8.661-3.442-18.198-5.074-27.789-4.613
							c-9.59,0.436-19.213,3.002-27.971,7.556c-8.768,4.54-16.635,11.046-23.021,18.899c-6.393,7.853-11.303,17.065-14.347,26.978
							c-1.524,4.956-2.585,10.085-3.16,15.296c-0.615,5.213-0.529,10.498-0.531,15.817c0.001,10.633,0.003,21.378,0.004,32.229
							c0.002,21.703,0.004,43.83,0.006,66.33c0.002,45.002,0.004,91.499,0.005,139.084v0.26h-0.26c-2.355,0-4.825,0-7.433,0h-0.26
							v-0.26c0-1.351,0-2.811,0-4.272c0.002-51.371,0.004-101.527,0.005-149.969c0.002-24.221,0.004-48.014,0.006-71.316
							c0.001-5.826,0.001-11.62,0.002-17.383c-0.015-5.771,0.406-11.528,1.406-17.154c1.969-11.257,6.061-22.003,11.928-31.496
							c5.858-9.496,13.485-17.749,22.33-24.085c8.829-6.352,18.86-10.779,29.221-12.914c10.357-2.139,21.008-2.065,31.031,0.131
							c10.034,2.176,19.41,6.419,27.543,12.095c8.143,5.677,15.077,12.744,20.571,20.582c5.461,7.863,9.576,16.439,12.207,25.265
							c1.312,4.414,2.283,8.877,2.945,13.339c0.611,4.471,0.886,8.932,0.916,13.346c-0.003,8.816-0.006,17.439-0.009,25.861
							C318.812,360.707,318.743,442.612,318.742,444.048z"/>
					</g>
				</g>
			</g>
			<g>
				<rect x="243.681" y="105.865" style="fill:#FF725E;" width="6.733" height="51.847"/>
				<circle style="fill:#FF725E;" cx="247.048" cy="97.287" r="9.643"/>
				<g>
					<g>
						<path style="fill:#FF725E;" d="M255.798,130.554h-17.501c-2.481,0-4.492-2.011-4.492-4.492v-11.665
							c0-2.481,2.011-4.492,4.492-4.492h17.501c2.481,0,4.492,2.011,4.492,4.492v11.665
							C260.29,128.543,258.279,130.554,255.798,130.554z"/>
						<g>
							<path style="fill:#263238;" d="M255.798,130.554c-0.001-0.031,0.306-0.018,0.864-0.138c0.547-0.126,1.376-0.416,2.15-1.167
								c0.774-0.732,1.431-1.98,1.333-3.524c-0.011-1.563-0.024-3.333-0.038-5.284c-0.02-1.95-0.005-4.12-0.049-6.387
								c-0.086-1.092-0.626-2.182-1.526-2.928c-0.445-0.375-0.98-0.655-1.554-0.818c-0.578-0.173-1.175-0.172-1.835-0.164
								c-5.182,0.006-10.87,0.013-16.842,0.021c-1.417-0.007-2.772,0.741-3.528,1.892c-0.375,0.574-0.611,1.23-0.686,1.902
								c-0.046,0.663-0.014,1.412-0.025,2.104c-0.005,2.816-0.01,5.534-0.015,8.124c-0.001,0.646-0.002,1.285-0.003,1.915
								c0.004,0.599,0.135,1.186,0.374,1.716c0.476,1.065,1.384,1.879,2.411,2.255c1.019,0.401,2.153,0.237,3.224,0.28
								c1.068,0.006,2.093,0.011,3.073,0.017c3.879,0.035,7.035,0.063,9.274,0.083c1.059,0.02,1.899,0.037,2.521,0.049
								C255.496,130.518,255.798,130.536,255.798,130.554c0,0.018-0.303,0.035-0.879,0.052c-0.622,0.012-1.463,0.028-2.521,0.049
								c-2.239,0.02-5.395,0.048-9.274,0.083c-0.98,0.005-2.005,0.011-3.073,0.017c-0.535,0.003-1.08,0.005-1.635,0.008
								c-0.569,0.004-1.173-0.076-1.738-0.284c-1.135-0.405-2.144-1.295-2.68-2.471c-0.269-0.585-0.419-1.237-0.426-1.901
								c-0.002-0.631-0.005-1.271-0.007-1.919c-0.005-2.59-0.01-5.308-0.015-8.124c0.01-0.716-0.027-1.389,0.023-2.157
								c0.081-0.753,0.345-1.492,0.766-2.136c0.845-1.292,2.37-2.134,3.96-2.126c5.972,0.007,11.66,0.014,16.842,0.021
								c0.63-0.006,1.33-0.005,1.965,0.193c0.637,0.185,1.228,0.5,1.718,0.918c0.99,0.831,1.578,2.042,1.662,3.245
								c0.028,2.335-0.01,4.456-0.013,6.421c-0.014,1.951-0.027,3.721-0.039,5.284c0.076,1.604-0.655,2.94-1.485,3.672
								c-0.831,0.761-1.703,1.027-2.268,1.122C256.104,130.608,255.798,130.554,255.798,130.554z"/>
						</g>
					</g>
				</g>
				<rect x="215.105" y="152.774" style="fill:#FF725E;" width="68.007" height="4.938"/>
				<path style="fill:#FF725E;" d="M217.328,155.251c0,2.67-2.165,4.835-4.835,4.835c-2.67,0-4.835-2.164-4.835-4.835
					c0-2.67,2.165-4.835,4.835-4.835C215.163,150.417,217.328,152.581,217.328,155.251z"/>
				<path style="fill:#FF725E;" d="M290.491,155.251c0,2.67-2.164,4.835-4.835,4.835c-2.67,0-4.835-2.164-4.835-4.835
					c0-2.67,2.164-4.835,4.835-4.835C288.326,150.417,290.491,152.581,290.491,155.251z"/>
			</g>
			<g>
				<rect x="152.611" y="436.07" style="fill:#FF725E;" width="187.219" height="13.901"/>
				<g>
					<path style="fill:#263238;" d="M339.829,436.059c0,0.144-41.674,0.26-93.069,0.26c-51.413,0-93.078-0.117-93.078-0.26
						s41.665-0.26,93.078-0.26C298.156,435.798,339.829,435.915,339.829,436.059z"/>
				</g>
			</g>
		</g>
		<g>
			<rect x="194.181" y="340.408" style="fill:#263238;" width="112.099" height="17.627"/>
			<rect x="278.153" y="340.408" style="opacity:0.3;" width="28.127" height="17.627"/>
			<g>
				<path style="fill:#455A64;" d="M306.332,349.707c0,0.144-25.116,0.26-56.091,0.26c-30.986,0-56.096-0.117-56.096-0.26
					s25.111-0.26,56.096-0.26C281.216,349.447,306.332,349.564,306.332,349.707z"/>
			</g>
			<g>
				<path style="fill:#455A64;" d="M278.219,357.798c-0.144,0-0.26-3.949-0.26-8.819c0-4.872,0.117-8.82,0.26-8.82
					s0.26,3.948,0.26,8.82C278.48,353.849,278.363,357.798,278.219,357.798z"/>
			</g>
			<rect x="204.41" y="348.267" style="fill:#455A64;" width="13.547" height="2.88"/>
			<rect x="248.313" y="348.267" style="fill:#455A64;" width="13.547" height="2.88"/>
		</g>
	</g>
</g>
<g id="Speech_Bubble">
	<g>
		<g>
			<g>
				<g>
					<g>
						<g>
							<g>
								<g>
									<g>
										<g>
											<g>
												<g>
													<g>
														<g>
															<g>
																<g>
																	<g>
																		<path style="fill:#FFFFFF;" d="M378.13,139.368l-6.448-1.272c-3.122,2.363-6.916,3.92-11.1,4.322
																			c-12.033,1.156-22.725-7.662-23.88-19.695c-1.155-12.033,7.663-22.724,19.696-23.88
																			c12.033-1.155,22.724,7.662,23.88,19.696c0.483,5.024-0.779,9.812-3.282,13.772l0.009-0.008L378.13,139.368z"/>
																		<g>
																			<path style="fill:#263238;" d="M378.13,139.368c0,0-0.017-0.146-0.06-0.445
																				c-0.046-0.312-0.113-0.758-0.199-1.343c-0.184-1.208-0.453-2.982-0.803-5.287l-0.018-0.12l-0.09,0.083
																				l-0.009,0.008l0.099,0.082c1.513-2.379,3.07-5.849,3.377-10.229c0.08-1.089,0.073-2.228-0.029-3.4
																				c-0.159-1.163-0.277-2.381-0.631-3.589c-0.618-2.429-1.699-4.913-3.318-7.202
																				c-1.613-2.288-3.76-4.375-6.356-5.987c-2.589-1.614-5.628-2.746-8.875-3.159
																				c-3.243-0.431-6.687-0.085-9.943,1.05c-3.245,1.142-6.354,3.028-8.788,5.678
																				c-2.493,2.659-4.327,5.862-5.22,9.252c-0.929,3.378-1.02,6.882-0.391,10.138
																				c0.642,3.259,2.028,6.244,3.859,8.731c1.833,2.492,4.113,4.487,6.547,5.924c2.436,1.443,5.022,2.327,7.512,2.747
																				c1.245,0.242,2.473,0.275,3.653,0.322c1.18-0.062,2.323-0.074,3.404-0.266c4.349-0.682,7.664-2.522,9.868-4.21
																				l-0.05,0.012c2.1,0.397,3.719,0.703,4.824,0.912c0.534,0.099,0.942,0.175,1.229,0.228
																				C377.996,139.348,378.13,139.368,378.13,139.368s-0.149-0.036-0.429-0.095c-0.289-0.06-0.701-0.146-1.24-0.259
																				c-1.092-0.224-2.692-0.553-4.767-0.979l-0.027-0.006l-0.023,0.017c-2.207,1.658-5.509,3.46-9.822,4.115
																				c-1.072,0.185-2.205,0.191-3.374,0.248c-1.169-0.052-2.384-0.089-3.615-0.333
																				c-2.463-0.424-5.018-1.307-7.422-2.74c-2.403-1.428-4.651-3.404-6.456-5.869
																				c-1.803-2.46-3.167-5.408-3.797-8.625c-0.616-3.215-0.523-6.672,0.396-10.003
																				c0.882-3.344,2.693-6.503,5.152-9.125c4.857-5.212,12.088-7.511,18.477-6.648
																				c3.205,0.404,6.206,1.516,8.766,3.105c2.566,1.587,4.693,3.645,6.293,5.902c1.606,2.258,2.682,4.711,3.303,7.113
																				c0.355,1.194,0.476,2.399,0.638,3.55c0.105,1.16,0.117,2.288,0.044,3.368c-0.283,4.341-1.805,7.794-3.288,10.173
																				l-0.266,0.427l0.365-0.345l0.009-0.008l-0.108-0.037c0.381,2.281,0.674,4.035,0.874,5.23
																				c0.101,0.591,0.177,1.042,0.231,1.357C378.097,139.206,378.13,139.368,378.13,139.368z"/>
																		</g>
																	</g>
																</g>
															</g>
														</g>
													</g>
												</g>
											</g>
										</g>
									</g>
								</g>
							</g>
						</g>
					</g>
				</g>
			</g>
		</g>
		<g>
			<g>
				<g>
					<g>
						<g>
							<g>
								<g>
									<g>
										<g>
											<g>
												<g>
													<g>
														<g>
															<path style="fill:#263238;" d="M364.077,120.597c0,1.493,1.21,2.704,2.704,2.704s2.704-1.211,2.704-2.704
																c0-1.493-1.211-2.704-2.704-2.704S364.077,119.104,364.077,120.597z"/>
														</g>
													</g>
												</g>
											</g>
										</g>
									</g>
								</g>
							</g>
						</g>
					</g>
				</g>
			</g>
		</g>
		<g>
			<g>
				<g>
					<g>
						<g>
							<g>
								<g>
									<g>
										<g>
											<g>
												<g>
													<g>
														<g>
															<path style="fill:#263238;" d="M355.994,120.597c0,1.493,1.21,2.704,2.704,2.704c1.494,0,2.704-1.211,2.704-2.704
																c0-1.493-1.21-2.704-2.704-2.704C357.204,117.893,355.994,119.104,355.994,120.597z"/>
														</g>
													</g>
												</g>
											</g>
										</g>
									</g>
								</g>
							</g>
						</g>
					</g>
				</g>
			</g>
		</g>
		<g>
			<g>
				<g>
					<g>
						<g>
							<g>
								<g>
									<g>
										<g>
											<g>
												<g>
													<g>
														<g>
															<path style="fill:#263238;" d="M347.897,120.597c0,1.493,1.21,2.704,2.704,2.704c1.494,0,2.704-1.211,2.704-2.704
																c0-1.493-1.211-2.704-2.704-2.704C349.107,117.893,347.897,119.104,347.897,120.597z"/>
														</g>
													</g>
												</g>
											</g>
										</g>
									</g>
								</g>
							</g>
						</g>
					</g>
				</g>
			</g>
		</g>
	</g>
</g>
<g id="Character_00000115483101548677902620000005457578950051749781_">
	<g>
		<g>
			<g>
				<g>
					<g>
						<path style="fill:#FFBF9D;" d="M416.424,117.357l-1,0.028c-10.057,0.276-18.217,8.227-18.751,18.274
							c-0.496,9.345-0.924,19.675-0.726,24.676c0.412,10.354,10.816,11.681,10.816,11.681l-0.685,15.972l24.771,2.95l1.481-53.114
							C432.963,127.045,427.217,117.692,416.424,117.357z"/>
					</g>
					<g>
						<path style="fill:#FF9A6C;" d="M406.75,172.014c0,0,6.553,0.206,13.39-4.355c0,0-3.132,7.72-13.493,7.071L406.75,172.014z"/>
					</g>
					<g>
						<path style="fill:#263238;" d="M401.652,145.362c-0.007,0.782,0.651,1.432,1.467,1.453c0.815,0.021,1.482-0.593,1.488-1.375
							c0.006-0.782-0.65-1.433-1.465-1.454C402.326,143.964,401.658,144.581,401.652,145.362z"/>
					</g>
					<g>
						<path style="fill:#263238;" d="M399.039,140.666c0.188,0.188,1.286-0.672,2.878-0.712c1.589-0.062,2.78,0.725,2.947,0.525
							c0.083-0.089-0.114-0.432-0.632-0.788c-0.511-0.355-1.375-0.69-2.366-0.659c-0.991,0.033-1.815,0.421-2.284,0.807
							C399.102,140.229,398.947,140.582,399.039,140.666z"/>
					</g>
					<g>
						<path style="fill:#263238;" d="M416.124,145.114c-0.006,0.782,0.651,1.432,1.467,1.453c0.815,0.022,1.482-0.593,1.488-1.375
							c0.006-0.781-0.651-1.432-1.466-1.454C416.797,143.716,416.13,144.332,416.124,145.114z"/>
					</g>
					<g>
						<path style="fill:#263238;" d="M414.692,140.533c0.189,0.188,1.288-0.672,2.879-0.711c1.589-0.062,2.78,0.725,2.947,0.525
							c0.082-0.089-0.112-0.432-0.633-0.788c-0.511-0.355-1.374-0.69-2.366-0.659c-0.991,0.032-1.815,0.42-2.285,0.807
							C414.757,140.096,414.6,140.45,414.692,140.533z"/>
					</g>
					<g>
						<path style="fill:#263238;" d="M409.24,152.496c0.005-0.091-0.989-0.235-2.598-0.396c-0.408-0.031-0.795-0.101-0.871-0.376
							c-0.104-0.291,0.054-0.734,0.238-1.212c0.355-0.994,0.727-2.036,1.117-3.128c1.549-4.452,2.657-8.108,2.478-8.169
							c-0.18-0.061-1.581,3.499-3.129,7.951c-0.372,1.097-0.728,2.144-1.066,3.145c-0.141,0.466-0.391,0.997-0.167,1.601
							c0.118,0.301,0.422,0.513,0.685,0.576c0.263,0.072,0.491,0.071,0.693,0.077C408.235,152.607,409.236,152.586,409.24,152.496z"
							/>
					</g>
					<g>
						<path style="fill:#263238;" d="M413.144,134.447c0.221,0.398,1.573-0.077,3.251-0.177c1.675-0.138,3.099,0.139,3.241-0.284
							c0.061-0.202-0.248-0.556-0.862-0.862c-0.609-0.306-1.529-0.531-2.534-0.46c-1.005,0.072-1.87,0.424-2.412,0.813
							C413.282,133.864,413.045,134.258,413.144,134.447z"/>
					</g>
					<g>
						<path style="fill:#263238;" d="M398.782,134.105c0.345,0.352,1.648-0.059,3.228-0.12c1.577-0.107,2.924,0.163,3.221-0.224
							c0.13-0.187-0.09-0.544-0.684-0.87c-0.585-0.325-1.557-0.578-2.641-0.52c-1.084,0.059-2.016,0.412-2.556,0.797
							C398.802,133.555,398.629,133.933,398.782,134.105z"/>
					</g>
					<g>
						<path style="fill:#263238;" d="M397.539,130.882c0,0,2.554-6.561,5.64-8.161c3.736-1.936,5.48,2.175,9.061,1.068
							c3.581-1.107,7.147-2.965,10.911-0.277c4.12,2.942,2.288,5.136,2.663,9.725c1.522,18.604,5.069,23.78,5.796,14.977
							c0.08-0.964,2.727-1.802,3.011-5.875c0.368-5.282,0.395-11.683-0.883-15.389c-1.078-3.124-2.934-5.251-6.221-7.563
							c-5.189-3.649-12.176-3.539-16.907-2.931C405.881,117.063,396.885,122.772,397.539,130.882z"/>
					</g>
					<g>
						<path style="fill:#FFBF9D;" d="M430.943,147.951c0.022-1.6,1.364-2.9,2.961-2.792c1.937,0.13,4.116,1.168,4.098,5.164
							c-0.032,7.087-7.141,5.593-7.152,5.39C430.843,155.574,430.903,150.916,430.943,147.951z"/>
					</g>
					<g>
						<path style="fill:#FF9A6C;" d="M432.405,153.052c0.031-0.022,0.123,0.087,0.331,0.184c0.203,0.094,0.552,0.16,0.923,0.023
							c0.75-0.271,1.386-1.457,1.426-2.734c0.021-0.645-0.111-1.26-0.338-1.769c-0.214-0.52-0.547-0.883-0.924-0.952
							c-0.375-0.089-0.643,0.136-0.73,0.335c-0.096,0.198-0.052,0.339-0.089,0.352c-0.02,0.018-0.152-0.12-0.093-0.412
							c0.03-0.14,0.114-0.307,0.281-0.443c0.171-0.138,0.421-0.207,0.683-0.177c0.546,0.04,1.036,0.545,1.285,1.105
							c0.279,0.562,0.443,1.253,0.419,1.977c-0.052,1.428-0.789,2.761-1.815,3.053c-0.499,0.128-0.914-0.025-1.128-0.192
							C432.416,153.223,432.38,153.065,432.405,153.052z"/>
					</g>
					<g>
						<path style="fill:#263238;" d="M409.067,157.574c0.032-0.265,1.784,0.051,3.301-1.221c1.52-1.269,1.664-3.172,1.912-3.141
							c0.114-0.005,0.265,0.478,0.142,1.27c-0.115,0.778-0.569,1.861-1.497,2.64c-0.929,0.775-2.018,0.983-2.748,0.911
							C409.433,157.967,409.035,157.692,409.067,157.574z"/>
					</g>
				</g>
			</g>
			<g>
				<path style="fill:#FF725E;" d="M396.793,132.561l0.759-14.687c0.002-0.053,0.013-0.105,0.037-0.153
					c0.355-0.735,3.311-5.725,18.152-4.13c14.811,1.592,18.835,5.711,18.835,8.536c0.326,3.17-0.031,7.133-0.031,12.465
					C422.064,128.547,408.236,126.504,396.793,132.561z"/>
			</g>
			<g style="opacity:0.3;">
				<path style="fill:#FFFFFF;" d="M424.88,125.859c-4.525-1.406-9.115-2.429-13.842-2.752c-4.727-0.323-9.597,0.223-13.878,2.254
					l-0.197,4.246c12.818-1.277,22.547-0.455,28.763,1.551c6.497,2.098,8.781,3.434,8.781,3.434l0.031-3.934
					C431.596,128.512,429.103,127.171,424.88,125.859z"/>
			</g>
			<path style="fill:#FFFFFF;" d="M424.918,127.605c-4.525-1.406-9.115-2.429-13.842-2.752c-4.727-0.323-9.425,0.132-13.947,1.506
				l-0.125,2.071c10.628-3.676,22.314-0.415,28.53,1.591c6.498,2.098,9.043,4.225,9.043,4.225v-2.156
				C431.627,130.143,429.142,128.917,424.918,127.605z"/>
			<path style="fill:#263238;" d="M425.477,131.123c0,0-33.856,2.076-34.636,1.24C390.385,131.874,400.061,122.596,425.477,131.123
				L425.477,131.123z"/>
			<path style="fill:#455A64;" d="M401.353,128.479c-4.483,0.82-9.871,3.101-8.263,3.238c2.344,0.199,9.872-0.457,9.74-0.607
				c-1.695-1.931,0.39-2.968,0.39-2.968L401.353,128.479z"/>
		</g>
		<g>
			<g>
				<g>
					<g>
						<g>
							<g>
								<g>
									<g>
										<g>
											<g>
												<g>
													<g>
														<path style="fill:#263238;" d="M386.298,436.18l2.013,23.091l-3.674,18.722c-0.265,1.349,0.669,2.641,2.033,2.813l0,0
															c0.764,0.096,1.522-0.177,2.043-0.745c3.313-3.612,15.433-16.959,15.191-18.64c-0.28-1.948-0.506-24.497-0.506-24.497
															L386.298,436.18z"/>
													</g>
												</g>
											</g>
										</g>
									</g>
								</g>
							</g>
						</g>
					</g>
				</g>
				<g>
					<g>
						<g>
							<g>
								<g>
									<g>
										<g>
											<g>
												<g>
													<g>
														<path style="fill:#455A64;" d="M386.669,480.806l17.133-20.946l0.063,0.98c0.054,0.847-0.19,1.687-0.697,2.367
															c-1.358,1.82-5.218,6.764-14.386,16.85C388.248,480.644,387.453,480.927,386.669,480.806L386.669,480.806z"/>
													</g>
												</g>
											</g>
										</g>
									</g>
								</g>
							</g>
						</g>
					</g>
				</g>
				<g style="opacity:0.6;">
					<g>
						<g>
							<g>
								<g>
									<g>
										<g>
											<g>
												<g>
													<g>
														<g>
															<path style="fill:#FFFFFF;" d="M398.576,452.703c-0.554,0.438-0.687,1.327-0.272,1.898
																c0.415,0.571,1.317,0.714,1.879,0.286c0.561-0.428,0.754-1.49,0.278-2.011c-0.476-0.521-1.545-0.632-1.987-0.081"/>
														</g>
													</g>
												</g>
											</g>
										</g>
									</g>
								</g>
							</g>
						</g>
					</g>
				</g>
				<g>
					<g>
						<g>
							<g>
								<g>
									<g>
										<g>
											<g>
												<g>
													<g>
														<g>
															<path style="fill:#FFFFFF;" d="M391.307,470.361c-0.127,0.073-0.726-1.106-2.143-1.669
																c-1.4-0.606-2.657-0.198-2.696-0.339c-0.024-0.055,0.258-0.254,0.794-0.365c0.531-0.114,1.319-0.088,2.097,0.233
																c0.777,0.324,1.351,0.863,1.646,1.319C391.305,469.999,391.363,470.338,391.307,470.361z"/>
														</g>
													</g>
												</g>
											</g>
										</g>
									</g>
								</g>
							</g>
						</g>
					</g>
				</g>
				<g>
					<g>
						<g>
							<g>
								<g>
									<g>
										<g>
											<g>
												<g>
													<g>
														<g>
															<path style="fill:#FFFFFF;" d="M389.859,473.564c-0.104,0.107-0.894-0.597-2.113-0.863
																c-1.213-0.293-2.231-0.005-2.277-0.146c-0.074-0.114,1.007-0.676,2.392-0.35
																C389.247,472.516,389.975,473.493,389.859,473.564z"/>
														</g>
													</g>
												</g>
											</g>
										</g>
									</g>
								</g>
							</g>
						</g>
					</g>
				</g>
				<g>
					<g>
						<g>
							<g>
								<g>
									<g>
										<g>
											<g>
												<g>
													<g>
														<g>
															<path style="fill:#FFFFFF;" d="M394.119,466.194c-0.101,0.117-1.312-0.973-3.17-1.552
																c-1.85-0.609-3.468-0.426-3.482-0.58c-0.046-0.121,1.652-0.552,3.638,0.095
																C393.095,464.784,394.227,466.122,394.119,466.194z"/>
														</g>
													</g>
												</g>
											</g>
										</g>
									</g>
								</g>
							</g>
						</g>
					</g>
				</g>
				<g>
					<g>
						<g>
							<g>
								<g>
									<g>
										<g>
											<g>
												<g>
													<g>
														<g>
															<path style="fill:#FFFFFF;" d="M394.094,460.947c-0.053,0.143-1.365-0.309-3.032-0.263
																c-1.667,0.024-2.959,0.531-3.018,0.39c-0.071-0.109,1.215-0.869,3.007-0.899
																C392.843,460.129,394.16,460.835,394.094,460.947z"/>
														</g>
													</g>
												</g>
											</g>
										</g>
									</g>
								</g>
							</g>
						</g>
					</g>
				</g>
				<g>
					<g>
						<g>
							<g>
								<g>
									<g>
										<g>
											<g>
												<g>
													<g>
														<g>
															<path style="fill:#FFFFFF;" d="M393.675,452.33c-0.063,0.138-1.398-0.55-3.148-0.357
																c-1.755,0.154-2.929,1.091-3.017,0.967c-0.041-0.046,0.193-0.352,0.706-0.695c0.509-0.343,1.317-0.684,2.261-0.779
																c0.944-0.091,1.803,0.085,2.37,0.321C393.417,452.022,393.706,452.277,393.675,452.33z"/>
														</g>
													</g>
												</g>
											</g>
										</g>
									</g>
								</g>
							</g>
						</g>
					</g>
				</g>
				<g>
					<g>
						<g>
							<g>
								<g>
									<g>
										<g>
											<g>
												<g>
													<g>
														<g>
															<path style="fill:#FFFFFF;" d="M390.485,450.678c-0.029,0.002-0.102-0.305-0.088-0.873
																c0.015-0.564,0.125-1.398,0.548-2.336c0.222-0.446,0.447-1.015,1.073-1.361c0.311-0.175,0.793-0.145,1.087,0.143
																c0.291,0.28,0.401,0.655,0.433,1.021c0.07,1.469-1.099,2.971-2.737,3.287c-1.646,0.289-3.209-0.562-3.947-1.787
																c-0.165-0.319-0.29-0.715-0.135-1.118c0.151-0.406,0.611-0.592,0.946-0.557c0.694,0.058,1.152,0.426,1.574,0.694
																c0.838,0.59,1.375,1.232,1.694,1.696c0.321,0.467,0.432,0.762,0.407,0.776c-0.077,0.066-0.657-1.099-2.3-2.173
																c-0.412-0.245-0.89-0.557-1.387-0.572c-0.242-0.009-0.444,0.101-0.517,0.301c-0.077,0.192-0.009,0.479,0.132,0.729
																c0.622,1.002,2.052,1.776,3.44,1.51c1.383-0.253,2.409-1.574,2.364-2.758c-0.015-0.285-0.109-0.566-0.272-0.725
																c-0.16-0.157-0.391-0.188-0.599-0.087c-0.439,0.21-0.709,0.715-0.93,1.135
																C390.404,449.386,390.589,450.695,390.485,450.678z"/>
														</g>
													</g>
												</g>
											</g>
										</g>
									</g>
								</g>
							</g>
						</g>
					</g>
				</g>
			</g>
		</g>
		<g>
			<g>
				<g>
					<g>
						<g>
							<g>
								<g>
									<g>
										<g>
											<g>
												<g>
													<g>
														<path style="fill:#263238;" d="M438.335,435.263l0.402,23.175l5.603,18.238c0.404,1.314-0.39,2.696-1.729,3.009l0,0
															c-0.75,0.176-1.532-0.018-2.109-0.528c-3.671-3.247-17.114-15.26-17.049-16.958
															c0.076-1.966-2.047-24.417-2.047-24.417L438.335,435.263z"/>
													</g>
												</g>
											</g>
										</g>
									</g>
								</g>
							</g>
						</g>
					</g>
				</g>
				<g>
					<g>
						<g>
							<g>
								<g>
									<g>
										<g>
											<g>
												<g>
													<g>
														<path style="fill:#455A64;" d="M442.611,479.685l-19.221-19.049l0.04,0.982c0.034,0.848,0.364,1.658,0.94,2.282
															c1.54,1.669,5.894,6.184,16.062,15.261C441.024,479.688,441.845,479.887,442.611,479.685L442.611,479.685z"/>
													</g>
												</g>
											</g>
										</g>
									</g>
								</g>
							</g>
						</g>
					</g>
				</g>
				<g style="opacity:0.6;">
					<g>
						<g>
							<g>
								<g>
									<g>
										<g>
											<g>
												<g>
													<g>
														<g>
															<path style="fill:#FFFFFF;" d="M427.843,452.974c0.596,0.378,0.821,1.248,0.469,1.859
																c-0.353,0.611-1.236,0.848-1.839,0.48c-0.603-0.367-0.905-1.403-0.486-1.971c0.419-0.568,1.471-0.789,1.968-0.288"/>
														</g>
													</g>
												</g>
											</g>
										</g>
									</g>
								</g>
							</g>
						</g>
					</g>
				</g>
				<g>
					<g>
						<g>
							<g>
								<g>
									<g>
										<g>
											<g>
												<g>
													<g>
														<g>
															<path style="fill:#FFFFFF;" d="M436.911,469.779c0.133,0.059,0.607-1.175,1.958-1.883
																c1.33-0.748,2.622-0.473,2.646-0.618c0.018-0.057-0.283-0.226-0.828-0.28c-0.54-0.058-1.321,0.05-2.061,0.451
																c-0.739,0.403-1.254,0.999-1.5,1.483C436.875,469.419,436.853,469.763,436.911,469.779z"/>
														</g>
													</g>
												</g>
											</g>
										</g>
									</g>
								</g>
							</g>
						</g>
					</g>
				</g>
				<g>
					<g>
						<g>
							<g>
								<g>
									<g>
										<g>
											<g>
												<g>
													<g>
														<g>
															<path style="fill:#FFFFFF;" d="M438.685,472.814c0.115,0.096,0.827-0.687,2.012-1.078
																c1.176-0.418,2.218-0.237,2.25-0.382c0.062-0.121-1.072-0.567-2.415-0.099
																C439.184,471.708,438.562,472.756,438.685,472.814z"/>
														</g>
													</g>
												</g>
											</g>
										</g>
									</g>
								</g>
							</g>
						</g>
					</g>
				</g>
				<g>
					<g>
						<g>
							<g>
								<g>
									<g>
										<g>
											<g>
												<g>
													<g>
														<g>
															<path style="fill:#FFFFFF;" d="M433.68,465.928c0.113,0.105,1.203-1.104,2.992-1.874
																c1.776-0.798,3.405-0.784,3.403-0.939c0.033-0.125-1.701-0.378-3.608,0.473
																C434.552,464.419,433.566,465.867,433.68,465.928z"/>
														</g>
													</g>
												</g>
											</g>
										</g>
									</g>
								</g>
							</g>
						</g>
					</g>
				</g>
				<g>
					<g>
						<g>
							<g>
								<g>
									<g>
										<g>
											<g>
												<g>
													<g>
														<g>
															<path style="fill:#FFFFFF;" d="M433.168,460.616c0.068,0.136,1.325-0.45,2.988-0.577
																c1.661-0.15,2.998,0.22,3.042,0.074c0.059-0.116-1.299-0.738-3.085-0.581
																C434.327,459.673,433.091,460.511,433.168,460.616z"/>
														</g>
													</g>
												</g>
											</g>
										</g>
									</g>
								</g>
							</g>
						</g>
					</g>
				</g>
				<g>
					<g>
						<g>
							<g>
								<g>
									<g>
										<g>
											<g>
												<g>
													<g>
														<g>
															<path style="fill:#FFFFFF;" d="M432.679,452.093c0.077,0.131,1.333-0.693,3.094-0.683
																c1.762-0.029,3.026,0.78,3.102,0.648c0.036-0.05-0.229-0.33-0.775-0.617c-0.542-0.288-1.381-0.543-2.33-0.539
																c-0.949,0.007-1.785,0.272-2.323,0.566C432.904,451.76,432.643,452.044,432.679,452.093z"/>
														</g>
													</g>
												</g>
											</g>
										</g>
									</g>
								</g>
							</g>
						</g>
					</g>
				</g>
				<g>
					<g>
						<g>
							<g>
								<g>
									<g>
										<g>
											<g>
												<g>
													<g>
														<g>
															<path style="fill:#FFFFFF;" d="M435.68,450.118c0.03-0.001,0.069-0.314-0.004-0.877
																c-0.074-0.559-0.27-1.378-0.788-2.266c-0.268-0.42-0.551-0.963-1.209-1.242c-0.328-0.141-0.804-0.062-1.066,0.256
																c-0.26,0.309-0.331,0.693-0.324,1.061c0.083,1.469,1.402,2.84,3.064,2.985c1.668,0.116,3.133-0.893,3.74-2.189
																c0.131-0.335,0.214-0.741,0.018-1.126c-0.193-0.388-0.67-0.525-0.999-0.456c-0.684,0.13-1.102,0.544-1.494,0.854
																c-0.772,0.674-1.239,1.368-1.508,1.863c-0.27,0.498-0.351,0.803-0.324,0.814c0.084,0.057,0.54-1.161,2.062-2.401
																c0.385-0.286,0.827-0.647,1.32-0.713c0.24-0.034,0.452,0.054,0.546,0.245c0.096,0.183,0.059,0.476-0.055,0.739
																c-0.514,1.061-1.856,1.98-3.264,1.86c-1.402-0.108-2.559-1.315-2.638-2.497c-0.014-0.285,0.05-0.574,0.195-0.75
																c0.143-0.173,0.369-0.227,0.586-0.149c0.458,0.163,0.779,0.637,1.043,1.032
																C435.626,448.824,435.578,450.146,435.68,450.118z"/>
														</g>
													</g>
												</g>
											</g>
										</g>
									</g>
								</g>
							</g>
						</g>
					</g>
				</g>
			</g>
		</g>
		<g>
			<path style="fill:#263238;" d="M443.595,284.085l-11.76-23.934l-47.647,6.432l-8.22,26.32l-1.853,17.481l4.957,84.805
				l2.967,23.934c0,0,2.36,34.783,4.364,38.19l20.014-0.072c0,0-0.068-15.721,0.237-21.926c0.305-6.205,0.317-31.261,0.954-44.558
				c0.638-13.297,3.685-38.413,3.685-38.413l1.524-31.617c0,0,2.361,58.211,4.533,63.53l2.171,64.712
				c0.61,4.137,0.3,8.346,0.3,8.346h20.573l2.287-59.17l4.571-52.597l3.389-44.323L443.595,284.085z"/>
			<g>
				<path style="fill:#455A64;" d="M406.417,457.313c0,0.144-4.421,0.26-9.874,0.26c-5.454,0-9.874-0.117-9.874-0.26
					c0-0.144,4.42-0.26,9.874-0.26C401.996,457.053,406.417,457.169,406.417,457.313z"/>
			</g>
			<g>
				<path style="fill:#455A64;" d="M440.384,457.313c0,0.144-4.421,0.26-9.874,0.26c-5.454,0-9.874-0.117-9.874-0.26
					c0-0.144,4.42-0.26,9.874-0.26C435.963,457.053,440.384,457.169,440.384,457.313z"/>
			</g>
		</g>
		<g>
			<g>
				<path style="fill:#263238;" d="M406.647,172.335l-3.614,3.682c1.303,8.084,12.332,9.831,12.332,9.831l0.597-6.37
					C409.891,178.482,406.647,172.335,406.647,172.335z"/>
				<path style="fill:#263238;" d="M431.536,171.349c0,0-2.636,6.337-14.18,8.626l0.697,5.872c0,0,13.844-1.747,15.147-9.831
					L431.536,171.349z"/>
			</g>
			<path style="opacity:0.3;" d="M375.468,297.613c-0.012,0.116,29.633,15.455,29.633,15.455s10.801-25.469,10.563-24.953
				c-0.238,0.516,10.604,24.953,10.604,24.953l24.372-11.845l-12.843-20.338l-29.5-5.676l-32.432,18.656L375.468,297.613z"/>
			<g>
				<path style="fill:#FF725E;" d="M382.756,277.652c0,0-13.257-24.251-13.419-27.323c-0.162-3.072-1.132-6.952-1.132-6.952
					s-0.485-6.144,0-18.593c0.485-12.449,1.97-35.65,3.719-36.7c1.749-1.05,8.245,9.215,8.407,9.862
					c0.162,0.647,12.934,49.957,12.934,50.766C393.265,249.52,382.756,277.652,382.756,277.652z"/>
				<path style="fill:#FF725E;" d="M461.977,188.09c0,0,2.263,0.641,2.91,2.581s1.455,53.676,1.94,56.91
					c0.485,3.233-6.79,18.431-10.024,21.341c-3.233,2.91-10.024,11.964-10.024,11.964l-13.581-43.976L461.977,188.09z"/>
				<path style="fill:#FF725E;" d="M371.924,188.084c0.485,0.162,2.748-2.91,14.227-5.982c11.479-3.072,17.299-6.305,17.299-6.305
					s6.14,10.073,13.194,10.094c7.363,0.021,15.659-10.011,15.907-10.094c0.485-0.162,29.425,12.293,29.425,12.293l-15.359,44.616
					l2.5,34.232l2.835,30.762l-23.766,10.671l-12.449-26.515l-11.802,27.808l-28.778-14.551l8.246-45.431l2.263-19.401l-1.293-7.599
					L371.924,188.084z"/>
				<rect x="431.582" y="208.94" style="fill:#FFFFFF;" width="16.653" height="5.012"/>
				<path style="fill:#FFFFFF;" d="M418.052,185.847c-0.477-0.182-17.609,1.498-17.609,1.498s0.984,23.48,1.763,28.721
					c0,0,7.605,52.171,9.001,55.584c1.396,3.412,16.979,36.721,16.979,36.721l3.603-1.617l-18.1-35.879
					c0,0-8.619-52.429-8.831-56.921c-0.237-5.012-1.825-24.5-1.825-24.5l15.93-1.443L418.052,185.847z"/>
				<circle style="fill:#FFFFFF;" cx="406.628" cy="192.821" r="2.079"/>
				<path style="fill:#FFFFFF;" d="M410.056,208.94c0,1.148-0.931,2.079-2.079,2.079s-2.079-0.931-2.079-2.079
					c0-1.148,0.931-2.079,2.079-2.079S410.056,207.792,410.056,208.94z"/>
				<path style="fill:#FFFFFF;" d="M412.378,229.02c0,1.148-0.931,2.079-2.079,2.079s-2.079-0.931-2.079-2.079
					c0-1.148,0.931-2.079,2.079-2.079S412.378,227.872,412.378,229.02z"/>
				<circle style="fill:#FFFFFF;" cx="413.232" cy="250.753" r="2.079"/>
				<path style="fill:#FFFFFF;" d="M419.822,270.037c0,1.148-0.931,2.079-2.079,2.079c-1.148,0-2.079-0.931-2.079-2.079
					s0.931-2.079,2.079-2.079C418.891,267.958,419.822,268.889,419.822,270.037z"/>
				<polygon style="fill:#FFFFFF;" points="414.101,278.066 400.858,308.107 403.936,309.663 415.738,281.855 				"/>
				<path style="fill:#FFFFFF;" d="M412.791,186.459l0.898-5.633c0,0-6.685-1.735-8.458-7.048l1.416-1.443
					c0,0,2.539,5.385,9.315,7.143l-0.454,6.982H412.791z"/>
				<path style="fill:#FFFFFF;" d="M417.355,179.975l1.056,8.115l2.981-0.457l-1.062-6.371c0,0,4.084-1.021,7.719-3.431
					c3.635-2.41,4.328-4.118,4.328-4.118l-0.842-2.364C431.536,171.349,424.959,178.444,417.355,179.975z"/>
				<g>
					<path style="fill:#263238;" d="M378.327,277.652c-0.017-0.003,0.007-0.244,0.069-0.703c0.073-0.505,0.17-1.172,0.292-2.008
						c0.283-1.796,0.68-4.311,1.169-7.415c1.045-6.327,2.484-15.042,4.102-24.839l0.001,0.09c-0.232-1.24-0.478-2.555-0.727-3.886
						c-1.962-10.672-3.738-20.33-5.035-27.383c-0.613-3.469-1.111-6.294-1.467-8.309c-0.156-0.945-0.28-1.699-0.373-2.264
						c-0.08-0.519-0.113-0.792-0.095-0.796s0.085,0.264,0.198,0.777c0.117,0.561,0.273,1.308,0.469,2.246
						c0.395,2.008,0.949,4.822,1.63,8.279c1.336,7.046,3.164,16.694,5.185,27.355c0.248,1.331,0.493,2.647,0.724,3.886l0.009,0.046
						l-0.008,0.045c-1.683,9.786-3.181,18.491-4.268,24.811c-0.555,3.093-1.005,5.599-1.326,7.389
						c-0.159,0.829-0.286,1.491-0.383,1.992C378.4,277.418,378.343,277.655,378.327,277.652z"/>
				</g>
				<g>
					<path style="fill:#263238;" d="M450.009,279.349c-0.018,0.001-0.056-0.28-0.111-0.817c-0.054-0.585-0.127-1.367-0.218-2.35
						c-0.17-2.095-0.41-5.036-0.704-8.649c-0.547-7.352-1.297-17.424-2.126-28.55c-0.083-1.166-0.166-2.321-0.243-3.405
						l-0.004-0.049l0.014-0.046c3.098-9.9,5.861-18.726,7.867-25.137c1.007-3.138,1.822-5.682,2.404-7.495
						c0.281-0.843,0.505-1.514,0.674-2.02c0.159-0.459,0.25-0.697,0.266-0.692c0.016,0.005-0.043,0.253-0.171,0.722
						c-0.146,0.512-0.341,1.193-0.585,2.047c-0.544,1.824-1.308,4.385-2.251,7.543c-1.966,6.423-4.673,15.266-7.709,25.185
						l0.011-0.095c0.078,1.084,0.161,2.238,0.245,3.405c0.769,11.13,1.465,21.205,1.974,28.561c0.225,3.618,0.408,6.564,0.539,8.661
						c0.05,0.986,0.09,1.771,0.12,2.357C450.024,279.064,450.026,279.348,450.009,279.349z"/>
				</g>
				<path style="opacity:0.3;" d="M454.797,209.936l-4.772,24.551l6.446-4.638c0,0-3.132,6.732-6.446,9.046
					c0,0,4.599,3.754,2.323,3.114c-2.277-0.64-4.113,0.719-4.113,0.719s3.687,24.544,1.321,30.313l-2.69-37.482L454.797,209.936z"/>
				<path style="opacity:0.3;" d="M379.411,217.008l1.643,24.664l-6.446-4.638c0,0,3.132,6.732,6.446,9.046
					c0,0-4.599,3.754-2.323,3.114c2.277-0.64,3.608,0.419,3.608,0.419s-5.294,15.834-2.929,21.603l4.803-28.472L379.411,217.008z"/>
			</g>
		</g>
	</g>
</g>
</svg>
